<svg version="1.1" xmlns="http://www.w3.org/2000/svg" xmlns:xlink="http://www.w3.org/1999/xlink" width="400" height="400" viewBox="0 0 400 400"><defs/><g><path fill="none" stroke="#000000" paint-order="fill stroke markers" d=" M 222.59584465289228 216.41684209652877 C 223.85702508191588 223.06314205123806 217.80461616326926 239.2852422706442 212.95708257414154 239.87779972825578 C 208.10954898501384 240.47035718586736 197.99203565433913 224.93154312282812 193.5106431181261 219.97218684219823 C 189.0292505819131 215.01283056156834 189.30383454321776 213.45035985150943 186.0687273568634 210.12166204447638 C 182.83362017050905 206.79296423744336 186.67212409258667 212.50807016878383 174.1 200 C 161.52787590741332 187.49192983121617 114.7482696845773 161.01489260791757 110.6359828013433 135.07324103177342 C 106.52369591810931 109.1315894556293 132.43405044234743 39.986637794074824 149.42627870059607 44.35009054313517 C 166.41850695884477 48.71354329219551 186.9162015658327 147.84094860260535 212.58935235083536 161.25395752613542 C 238.26250313583802 174.6669664496655 304.66507546908457 118.37047033867148 303.465183410612 124.82814408431558 C 302.26529135213946 131.28581782995968 218.86822312628664 184.73521699796447 205.39 200 C 191.9117768737134 215.26478300203553 221.33466422386869 209.77054214181948 222.59584465289228 216.41684209652877" stroke-linecap="round" stroke-miterlimit="10" stroke-dasharray=""/></g></svg>