<svg version="1.1" xmlns="http://www.w3.org/2000/svg" xmlns:xlink="http://www.w3.org/1999/xlink" width="400" height="400" viewBox="0 0 400 400"><defs/><g><path fill="none" stroke="#000000" paint-order="fill stroke markers" d=" M 334.10847318193385 259.7089392035275 C 317.28812858148035 273.6800619225025 292.01982510001915 275.8983636747558 275.47793239727923 283.82673631385006 C 258.93603969453926 291.7551089529444 249.37403321760112 302.81849196290966 234.85711696549407 307.27917503809334 C 220.34020071338702 311.73985811327697 203.38595437888594 312.53582984166724 188.37643488463692 310.590834764952 C 173.36691539038793 308.6458396882368 157.58684844506354 303.34331878023767 144.8 295.609204577802 C 132.01315155493648 287.87509037536637 119.6055321471218 276.47563200096704 111.65534421425575 264.1861495503381 C 103.70515628138969 251.89666709970913 96.59050823584424 235.59165137230275 97.09887240280364 221.87230987402828 C 97.60723656976303 208.15296837575383 108.50403794035371 193.47017928738757 114.70552921601215 181.87010056069136 C 120.9070204916706 170.2700218339952 126.72540825942296 160.7394579641733 134.30782005675428 152.27183751385118 C 141.89023185408558 143.80421706352908 150.61714192948966 136.104770210546 160.19999999999996 131.0643778587587 C 169.78285807051026 126.0239855069714 181.2162176184833 122.71373645483177 191.80496847981598 122.02948340312736 C 202.39371934114865 121.34523035142294 214.11405576953936 123.12922629660795 223.73250516799595 126.95885954853219 C 233.35095456645251 130.78849280045642 242.3867308458246 137.76883077541453 249.51566487055547 145.0072829146728 C 256.6445988952864 152.24573505393107 245.3587201281406 161.2241195365272 266.50610931638136 170.38957238408176 C 287.6534985046221 179.55502523163628 365.13293935574126 185.1134388634257 376.4 200 C 387.66706064425875 214.8865611365743 350.9288177823873 245.73781648455247 334.10847318193385 259.7089392035275" stroke-linecap="round" stroke-miterlimit="10" stroke-dasharray=""/></g></svg>