<svg version="1.1" xmlns="http://www.w3.org/2000/svg" xmlns:xlink="http://www.w3.org/1999/xlink" width="400" height="400" viewBox="0 0 400 400"><defs/><g><path fill="none" stroke="#000000" paint-order="fill stroke markers" d=" M 288.85551217429963 246.63497031459218 C 282.24899991938304 260.4610992616056 269.97284026310786 273.45613432520645 257.2609264705005 282.95677368208055 C 244.5490126778932 292.45741303895466 228.56359586356115 300.49439059811 212.58402941865572 303.63880645583686 C 196.6044629737503 306.78322231356367 177.47801702831006 306.69600952864494 161.38352780106788 301.82326882844166 C 145.28903857382568 296.9505281282384 128.41728661344587 286.7301831721789 116.01709405520249 274.40236225461723 C 103.6169014969591 262.07454133705556 92.0156810823586 244.94732405221072 86.98237245160756 227.8563433230717 C 81.94906382085652 210.7653625939327 81.74534552030583 189.5792962007615 85.81724227069627 171.8564778797832 C 89.8891390210867 154.13365955880488 99.51085156195454 135.62267285514258 111.4137529539502 121.51943339720187 C 123.31665434594585 107.41619393926116 140.00530100377387 94.45784317364448 157.23465062267016 87.23704113213897 C 174.46400024156648 80.01623909063346 195.846545705765 76.51885908077999 214.78985066732804 78.19462114816878 C 233.73315562889107 79.87038321555757 254.67633336198693 86.79637599129002 270.8944803920483 97.29161353647171 C 287.1126274221097 107.78685108165341 307.76447957970447 124.04798200867087 312.0987328476964 141.16604641925892 C 316.4329861156883 158.28411082984695 300.77387011223277 182.42184601744447 296.9 200 C 293.0261298877672 217.57815398255553 295.46202442921617 232.80884136757874 288.85551217429963 246.63497031459218" stroke-linecap="round" stroke-miterlimit="10" stroke-dasharray=""/></g></svg>