<svg version="1.1" xmlns="http://www.w3.org/2000/svg" xmlns:xlink="http://www.w3.org/1999/xlink" width="400" height="400" viewBox="0 0 400 400"><defs/><g><path fill="none" stroke="#000000" paint-order="fill stroke markers" d=" M 296.16052438593863 250.46893648395326 C 289.4595124884553 265.57069042310184 276.2714455035531 280.08609127546345 262.54392861510024 290.6105236348916 C 248.81641172664746 301.13495599431974 231.2228576768285 310.2507137866339 213.7954230552217 313.61553064052225 C 196.36798843361493 316.9803474944106 175.39847517438605 316.340268835178 157.97932088545952 310.7994247582217 C 140.560166596533 305.25858068126536 122.37554642329178 293.8832027210689 109.28049732166258 280.3704661787844 C 96.18544822003338 266.8577296364999 84.5332460559613 248.1078148013743 79.40902627568435 229.72300550451467 C 74.28480649540741 211.33819620765502 74.08055765605761 188.87470820561157 78.53517864000088 170.0616103976265 C 82.98979962394415 151.24851258964145 93.41023889131252 131.6770314011395 106.13675217934394 116.84441865660428 C 118.86326546737537 102.01180591206906 136.6618585229304 88.52509344443835 154.89425836818944 81.06593393041526 C 173.1266582134485 73.60677441639216 195.65811940419388 70.16701631072195 215.5311512508983 72.08946157246571 C 235.4041830976027 74.01190683420948 257.21880569188704 81.51771029388617 274.1324494484159 92.60060550087789 C 291.0460932049448 103.68350070786961 312.2434220314743 120.686933731229 317.0130137900717 138.58683281441603 C 321.78260554866904 156.48673189760302 306.22541490068886 181.35298272174379 302.75 200 C 299.27458509931114 218.64701727825621 302.86153628342186 235.36718254480468 296.16052438593863 250.46893648395326" stroke-linecap="round" stroke-miterlimit="10" stroke-dasharray=""/></g></svg>