<svg version="1.1" xmlns="http://www.w3.org/2000/svg" xmlns:xlink="http://www.w3.org/1999/xlink" width="400" height="400" viewBox="0 0 400 400"><defs/><g><path fill="none" stroke="#000000" paint-order="fill stroke markers" d=" M 328.1073127449572 241.6245891423054 C 321.97757132626856 254.02685796567658 312.04645449545967 265.21115542616445 302.4215514878683 274.4136129402271 C 292.796648480277 283.61607045428974 281.0469523468778 289.60228598855747 270.35789469940903 296.8393342266812 C 259.66883705194033 304.07638246480496 250.01352138629082 315.22579140674975 238.28720560305598 317.8359023689695 C 226.56088981982114 320.4460133311893 211.61903898849803 316.01890911029204 200 312.5 C 188.380961011502 308.98109088970796 179.4469988394786 300.5056333112806 168.57297167206787 296.72244770721716 C 157.6989445046571 292.9392621031536 144.2825590882229 295.1942134724844 134.7558369955355 289.80088637561914 C 125.22911490284805 284.407559278754 115.945727512514 274.3232242130882 111.41263911594326 264.36248512602583 C 106.87955071937253 254.40174603896344 110.64274646876828 240.76353270758253 107.55730661611108 230.0364518532449 C 104.47186676345387 219.30937099890727 90.85522848996543 209.34776407984216 92.9 200 C 94.94477151003458 190.65223592015786 113.3830752970053 182.23763943151582 119.82593567631855 173.94986737419194 C 126.2687960556318 165.6620953168681 126.95281848109039 157.9860321012755 131.55716227587945 150.2733676560568 C 136.1615060706685 142.56070321083808 140.61831034111538 133.46174508672414 147.45199844505288 127.67388070287971 C 154.28568654899044 121.8860163190353 163.8012906403468 122.14182813680365 172.55929089950465 115.54618135299037 C 181.3172911586625 108.9505345691771 189.16895434715806 93.28325801380859 199.99999999999997 88.10000000000001 C 210.83104565284188 82.91674198619143 226.20130944731136 81.41066126157531 237.5455648165561 84.44663327013883 C 248.88982018580083 87.48260527870235 264.41266817046795 94.25730693698702 268.06553221546835 106.31583205138108 C 271.7183962604688 118.37435716577514 257.4922132276712 145.50999388631598 259.46274908655863 156.79778395650322 C 261.4332849454461 168.08557402669044 266.599205549886 166.8422031319216 279.8887473687929 174.0425724725044 C 293.17828918769976 181.24294181308719 331.1635724373059 188.73633055503316 339.2 200 C 347.2364275626941 211.26366944496684 334.2370541636458 229.22232031893424 328.1073127449572 241.6245891423054" stroke-linecap="round" stroke-miterlimit="10" stroke-dasharray=""/></g></svg>