<svg version="1.1" xmlns="http://www.w3.org/2000/svg" xmlns:xlink="http://www.w3.org/1999/xlink" width="400" height="400" viewBox="0 0 400 400"><defs/><g><path fill="none" stroke="#000000" paint-order="fill stroke markers" d=" M 294.6988460112649 204.3781918796161 C 270.46813208058916 205.04252406775188 240.1791413173691 202.11835230232194 243.0157164159455 203.98599312881464 C 245.85229151452185 205.85363395530734 302.37363459735786 213.1613771273897 311.71829660272317 215.5840368385723 C 321.0629586080885 218.0066965497549 305.43808506364644 218.23451393963398 299.0836884481373 218.5219513959103 C 292.7292918326282 218.8093888521866 283.7578157394173 218.58947774107276 273.5919169096684 217.30866157623012 C 263.42601807991946 216.0278454113875 246.1817081051881 212.3235490900658 238.08829546964364 210.8370544068545 C 229.99488283409914 209.35055972364316 227.27661253196294 208.60640588021448 225.0314410964015 208.3896934769622 C 222.78626966084005 208.17298107370993 221.28786398407345 207.62290999355167 224.617266856275 209.53677998734082 C 227.9466697284765 211.45064998113 233.89296018595374 213.88482472271954 245.00785832961063 219.87291343969724 C 256.12275647326754 225.8610021566749 278.88937493308094 237.6828824178321 291.30665571821635 245.4653122892069 C 303.7239365033518 253.24774216058168 318.40514998745084 264.03754718890184 319.51154304042336 266.56749266794594 C 320.6179360933959 269.09743814699 308.4586333323681 265.2970121503781 297.94501403605153 260.64498516347135 C 287.43139473973497 255.9929581765646 264.454617104818 242.49542805540625 256.4298272625239 238.65533074650529 C 248.40503742022977 234.81523343760432 258.73964581011785 243.66364835109195 249.79627498228695 237.60440131006558 C 240.85290415445604 231.54515426903922 192.88936209562465 191.99433588498601 202.76960229553836 202.29984850034705 C 212.64984249545208 212.6053611157081 295.11433822815343 285.3958067494175 309.0777161817693 299.43747700223184 C 323.04109413538515 313.4791472550462 301.49575029135815 299.57554004827955 286.5498700172334 286.5498700172334 C 271.6039897431087 273.5241999861872 231.78310309514012 233.24656644501533 219.40243453702084 221.283456815955 C 207.02176597890156 209.32034718689462 209.71430524878028 210.65748966364015 212.26585866851767 214.7712122428713 C 214.81741208825505 218.88493482210242 231.33075525507456 240.5076852423433 234.71175505544517 245.96579229134178 C 238.09275485581577 251.42389934034026 228.12436602016146 238.686607485598 232.55185747074128 247.5198545368622 C 236.97934892132113 256.35310158812644 257.06724466175734 289.58752702027266 261.2767037589242 298.96527459892707 C 265.4861628560911 308.3430221775815 262.04850204615764 308.2853643377854 257.80861205374254 303.78634000878867 C 253.56872206132743 299.287315679792 241.51370663231285 280.30387204856254 235.83736380443366 271.971128624947 C 230.16102097655448 263.6383852013315 225.38854905962722 254.59540081840117 223.75055508646744 253.78987946709563 C 222.11256111330766 252.98435811579006 226.027212210404 264.3457883981682 226.009399965475 267.1380005171136 C 225.99158772054602 269.93021263605897 222.45058921168325 262.30394094152916 223.64368161689347 270.54315218076783 C 224.83677402210373 278.7823634200065 234.40695151014046 316.84389094121747 233.16795439673646 316.5732679525457 C 231.92895728333247 316.30264496387383 219.93694606132317 278.71515586392576 216.2096989364695 268.91941424873704 C 212.48245181161582 259.1236726335484 212.51136238137238 262.1544322005681 210.80447164761435 257.79881826141343 C 209.09758091385632 253.44320432225874 206.9755919171393 243.8555530745738 205.9683545339213 242.78573061380885 C 204.9611171507033 241.71590815304393 204.58271325435814 233.137941039145 204.7610473483064 251.37988349682377 C 204.93938144225461 269.6218259545026 207.83186698899513 341.2006992760189 207.03835909761074 352.23738535988156 C 206.24485120622634 363.2740714437442 201.5425275187677 334.9814337615613 200 317.6 C 198.45747248123232 300.2185662384387 198.79814593910083 256.5957068512685 197.78319398500452 247.94878279051386 C 196.7682420309082 239.30185872975926 195.80658482746702 257.4671883675379 193.91028827542206 265.7184556354723 C 192.0139917233771 273.96972290340665 188.3304550037036 292.68189274242314 186.4054146727348 297.4563863981202 C 184.48037434176598 302.23088005381726 183.62012053763044 295.6172025988533 182.36004628960927 294.3654175696546 C 181.09997204158807 293.11363254045585 178.203746016148 297.5939104152188 178.8449691846076 289.945676222928 C 179.48619235306725 282.2974420306373 185.54166960737209 254.93351262474607 186.20738530036704 248.47601241591008 C 186.873100993362 242.0185122070741 182.99693755604446 252.93919921261423 182.8392633425773 251.20067496991214 C 182.68158912911017 249.4621507272101 183.85533286086587 243.2850548614595 185.26134001956416 238.0448669596977 C 186.66734717826245 232.8046790579359 192.47391748206203 218.76001973017935 191.27530629476706 219.75954755934126 C 190.0766951074721 220.75907538850313 185.0824752053188 232.1342622639791 178.06967289579433 244.04203393466906 C 171.05687058626984 255.94980560535902 151.22890527932805 289.36417150671264 149.19849243762022 291.206177583481 C 147.1680795959124 293.04818366024926 171.8877701277024 249.17516464280928 165.88719584554735 255.094070395279 C 159.88662156339228 261.0129761477487 118.95963747682032 320.7396298458545 113.19504674468989 326.7196120982992 C 107.43045601255946 332.69959435074395 123.60393538345721 303.93895916724534 131.29965145276478 290.9739639099473 C 138.99536752207234 278.0089686526493 156.54258930800535 254.6326537324112 159.36934316053527 248.9296405545111 C 162.1960970130652 243.226627376611 146.01388182762756 260.38534153537125 148.26017456794443 256.75588484254666 C 150.5064673082613 253.12642814972202 175.6045326889588 226.2373016258309 172.84709960243657 227.15290039756343 C 170.08966651591436 228.06849916929596 140.57650374431927 255.65902645419163 131.7155760488111 262.24947747294186 C 122.8546483533029 268.8399284916921 111.97167534967842 274.2984000948772 119.68153342938747 266.6956065100648 C 127.39139150909652 259.0928129252524 174.48828312714292 220.9670134093405 177.9747245270654 216.63271596406747 C 181.46116592698786 212.29841851879445 144.0711265235619 239.0399109976014 140.60018182892225 240.6898218384266 C 137.1292371342826 242.33973267925182 155.98531057051153 228.44777319642128 157.14905635922747 226.53218100901876 C 158.3128021479434 224.6165888216162 150.82472680080778 228.44773395517333 147.58265656121782 229.19626871401138 C 144.34058632162785 229.94480347284943 141.40160762666108 230.39610868145786 137.6966349216877 231.02338956204707 C 133.9916622167143 231.65067044263628 129.88848182212848 232.35065226556003 125.3528203313775 232.95995399754665 C 120.81715884062653 233.56925572953327 108.66086861876359 236.6132617209072 110.48266597718185 234.6791999539667 C 112.30446333560012 232.74513818702624 129.8281144713382 224.72721574226392 136.2836044818871 221.3555833959038 C 142.73909449243598 217.98395104954366 158.06496787467017 213.42965877612056 149.21560604047517 214.44940587580595 C 140.3662442062801 215.46915297549134 81.99736875445694 228.52255387480784 83.18743347671688 227.47406599401614 C 84.37749819897681 226.42557811322442 153.12996435317427 210.47172536884753 156.35599437403476 208.1584785910557 C 159.58202439489526 205.8452318132639 111.2013594849395 213.478038007695 102.54361360187983 213.59458532726524 C 93.88586771882015 213.71113264683544 97.15718478254468 210.70787560187622 104.40951907567668 208.857762508477 C 111.66185336880869 207.0076494150778 141.72587253995133 203.97020051828278 146.05761936067188 202.49390676686994 C 150.38936618139243 201.0176130154571 134.99509168409094 201.0437461653937 130.4 200 C 125.80490831590909 198.9562538346063 129.78895531091223 198.35360204216357 118.48706925612642 196.23142977450763 C 107.18518320134062 194.1092575068517 62.47277707387576 188.51779778382792 62.588683671285224 187.26696639406438 C 62.70459026869469 186.01613500430085 105.12738068295259 188.25801482861962 119.18250884058327 188.72644143592643 C 133.23763699821393 189.1948680432332 141.23737519205207 190.03020401016067 146.9194526170693 190.0775260379052 C 152.60153004208655 190.1248480656497 155.2006626970672 190.42165343085176 153.27497339068674 189.01037360239357 C 151.34928408430628 187.59909377393538 138.9557401149926 183.59173970253778 135.36531677878656 181.60984706715604 C 131.77489344258052 179.6279544317743 125.62234731693667 175.86020063223154 131.73243337345048 177.1190177901031 C 137.84251942996426 178.37783494797466 168.69809138947232 188.90375782227528 172.02583311786933 189.1627500143854 C 175.35357484626633 189.42174220649557 155.6300901938193 181.14585082728297 151.69888374383248 178.67297094276398 C 147.76767729384568 176.20009105824496 150.34770362862244 176.3182569200609 148.43859441794842 174.3254707072714 C 146.52948520727438 172.33268449448192 138.45239796861665 166.6486227535911 140.24422847978832 166.71625366602703 C 142.03605899096002 166.78388457846296 158.30525445219124 175.40046568487327 159.1895774849785 174.73125618188692 C 160.0739005177658 174.06204667890057 151.9955155635271 168.49327430898575 145.55016667651205 162.70099664810894 C 139.104817789497 156.90871898723213 131.44519518786166 150.37110660492857 120.51748416288814 139.97759021662608 C 109.5897731379146 129.5840738283236 80.03897506379073 102.46268494003645 79.98390052667085 100.33989831829408 C 79.92882598955097 98.2171116965517 110.08384863122564 120.5303484758325 120.18703694016882 127.24087048617181 C 130.290225249112 133.95139249651112 137.4063045250565 139.56164255300186 140.60303038032998 140.60303038033 C 143.7997562356035 141.64441820765816 140.32829283128152 136.66838002023798 139.36739207180983 133.4891974501407 C 138.40649131233815 130.3100148800434 134.85645305997306 123.84949061974453 134.83762582349993 121.52793495974639 C 134.81879858702678 119.20637929974825 139.69676124533942 122.98113547540899 139.25442865297094 119.55986349015187 C 138.81209606060247 116.13859150489475 124.1650970296269 90.99448217281414 132.18363026928898 101.0003030482037 C 140.2021635089511 111.00612392359326 180.9289445881602 171.83106315698691 187.36562809094346 179.59478874248927 C 193.80231159372673 187.35851432799163 171.81817112491495 150.4479310577848 170.80373128598862 147.58265656121785 C 169.78929144706228 144.71738206465085 180.4521543204358 162.8148565415039 181.2789890573854 162.40314176308738 C 182.105823794335 161.99142698467085 176.25698787912205 148.17094714527687 175.7647397076863 145.11236789071876 C 175.27249153625053 142.05378863616062 176.82862133670707 142.48901273158617 178.32550002877082 144.05166623573865 C 179.82237872083456 145.61431973989113 183.32289911877388 152.85817176697262 184.74601186006873 154.48828891563363 C 186.1691246013636 156.11840606429465 186.38240006943602 155.0080264362232 186.86417647654002 153.83236912770468 C 187.345952883644 152.65671181918617 186.4763636818889 145.2443892773699 187.63667030269275 147.43434506452257 C 188.79697692349663 149.6243008516753 192.31808667161954 162.17280308487548 193.82601620136322 166.9721038506209 C 195.3339457311069 171.7714046163663 197.5928857301114 191.63591800296095 196.6842474811548 176.2301496589951 C 195.77560923219826 160.8243813150292 188.56049662614814 86.5587796601628 188.37418670762383 74.53749378682566 C 188.18787678909956 62.51620791348853 193.62875242127967 89.19201671677652 195.56638797000903 104.10243441897225 C 197.5040235187384 119.01285212116798 198.5683127819821 163.00106702519764 200 164 C 201.4316872180179 164.99893297480236 203.60290112133669 110.07043732555668 204.15651127811648 110.09603226778647 C 204.7101214348963 110.12162721001626 201.80391114113485 165.01614192534646 203.3216609406789 164.15356965337875 C 204.83941074022292 163.29099738141107 211.79537553617823 109.758897674733 213.2630100753807 104.9205986359803 C 214.73064461458313 100.08229959722759 211.81951380567222 129.98502712482681 212.1274681758936 135.12377542086247 C 212.43542254611495 140.26252371689813 213.57436212175406 137.44411767691798 215.1107362967089 135.75308841219427 C 216.6471104716637 134.06205914747056 219.73288082050922 126.59586965323506 221.34571322562246 124.97759983252011 C 222.9585456307357 123.35933001180517 222.5654829393309 128.4592917971277 224.78773072738826 126.04346948790464 C 227.00997851544565 123.6276471786816 233.9634363500686 109.13410398035552 234.67919995396664 110.48266597718182 C 235.39496355786468 111.83122797400813 229.51331874045243 129.95724529465355 229.08231235077642 134.13484146886248 C 228.65130596110043 138.31243764307143 232.56077336727174 132.43331811639658 232.09316161591073 135.54824302243549 C 231.62554986454967 138.66316792847442 218.46469803999477 163.33785980207563 226.27664184261022 152.82439090509604 C 234.08858564522566 142.31092200811645 277.69290059447917 72.85480287072357 278.96482443160335 72.46742964055788 C 280.2367482687276 72.08005641039219 245.0200311735999 131.95798170361428 233.90818486535548 150.50015152410185 C 222.79633855711106 169.04232134458937 212.83433628114705 181.6251455853631 212.29374658213683 183.7204485634831 C 211.7531568831266 185.8157515416031 220.5870828493456 173.66087133004086 230.66464667129415 163.0719693928218 C 240.7422104932427 152.48306745560276 270.79883614717835 121.1034329841712 272.75912951382816 120.18703694016877 C 274.7194228804779 119.27064089616633 241.250767946859 156.3979542044733 242.42640687119285 157.57359312880715 C 243.60204579552666 158.749232053141 279.1906911618678 126.5582707308259 279.81296305983113 127.24087048617176 C 280.4352349577944 127.92347024151762 247.49194035974102 158.58218962093315 246.16003825897275 161.66919166088235 C 244.82813615820447 164.75619370083152 276.21490026665714 141.63496032703767 271.82155045522154 145.76288272586692 C 267.42820064378594 149.89080512469616 222.41780930653707 183.18796029981985 219.79993939035924 186.43672605385777 C 217.18206947418142 189.68549180789572 246.30998499685222 170.29399877090702 256.11433095815454 165.25547725009454 C 265.91867691945686 160.21695572928206 279.92193402900347 154.42648833932085 278.62601515817323 156.2055969289829 C 277.33009628734305 157.98470551864497 253.2100087764767 172.2663506534111 248.33881773317336 175.9301287880669 C 243.46762668987 179.59390692272268 250.92803291471822 176.70531219823891 249.39886889835316 178.18826573691769 C 247.86970488198807 179.67121927559648 229.38192614714677 187.23059794834867 239.16383363498295 184.82785002013958 C 248.9457411228191 182.42510209193048 296.342932210917 166.44268331572266 308.0903138253701 163.77177816766314 C 319.83769543982316 161.10087301960363 306.24753842999445 167.80129425862933 309.64812332170135 168.80241913178253 C 313.04870821340825 169.8035440049357 327.109048402217 168.25392095154413 328.49382317561145 169.7785274065823 C 329.8785979490059 171.30313386162047 332.439536141877 173.88024024777172 317.9567719620682 177.95005786201148 C 303.4740077822594 182.01987547625126 252.29509250378135 191.35285797085925 241.59723809675862 194.19743309202093 C 230.89938368973588 197.04200821318264 250.71318878803459 194.51224869077592 253.76964551993188 195.01750858898168 C 256.8261022518292 195.52276848718748 237.49758607479765 196.39857724608586 259.9359784881423 197.2289924812556 C 282.37437090148705 198.0594077164253 382.60618874614624 198.80846676693992 388.4 200 C 394.19381125385377 201.19153323306008 318.9295599419406 203.71385969148034 294.6988460112649 204.3781918796161" stroke-linecap="round" stroke-miterlimit="10" stroke-dasharray=""/></g></svg>