<svg version="1.1" xmlns="http://www.w3.org/2000/svg" xmlns:xlink="http://www.w3.org/1999/xlink" width="400" height="400" viewBox="0 0 400 400"><defs/><g><path fill="none" stroke="#000000" paint-order="fill stroke markers" d=" M 99.5 194 C 99.5 193.7238576251 99.7238576251 193.5 100 193.5 C 100.2761423749 193.5 100.5 193.7238576251 100.5 194 C 100.5 194.2761423749 100.2761423749 194.5 100 194.5 C 99.7238576251 194.5 99.5 194.2761423749 99.5 194" stroke-linecap="round" stroke-miterlimit="10" stroke-dasharray=""/><path fill="none" stroke="#000000" paint-order="fill stroke markers" d=" M 109.5 204 C 109.5 203.7238576251 109.7238576251 203.5 110 203.5 C 110.2761423749 203.5 110.5 203.7238576251 110.5 204 C 110.5 204.2761423749 110.2761423749 204.5 110 204.5 C 109.7238576251 204.5 109.5 204.2761423749 109.5 204" stroke-linecap="round" stroke-miterlimit="10" stroke-dasharray=""/><path fill="none" stroke="#000000" paint-order="fill stroke markers" d=" M 119.5 214 C 119.5 213.7238576251 119.7238576251 213.5 120 213.5 C 120.2761423749 213.5 120.5 213.7238576251 120.5 214 C 120.5 214.2761423749 120.2761423749 214.5 120 214.5 C 119.7238576251 214.5 119.5 214.2761423749 119.5 214" stroke-linecap="round" stroke-miterlimit="10" stroke-dasharray=""/><path fill="none" stroke="#000000" paint-order="fill stroke markers" d=" M 129.5 211 C 129.5 210.7238576251 129.72385762509998 210.5 130 210.5 C 130.27614237490002 210.5 130.5 210.7238576251 130.5 211 C 130.5 211.2761423749 130.27614237490002 211.5 130 211.5 C 129.72385762509998 211.5 129.5 211.2761423749 129.5 211" stroke-linecap="round" stroke-miterlimit="10" stroke-dasharray=""/><path fill="none" stroke="#000000" paint-order="fill stroke markers" d=" M 139.5 205 C 139.5 204.7238576251 139.7238576251 204.5 140 204.5 C 140.2761423749 204.5 140.5 204.7238576251 140.5 205 C 140.5 205.2761423749 140.2761423749 205.5 140 205.5 C 139.7238576251 205.5 139.5 205.2761423749 139.5 205" stroke-linecap="round" stroke-miterlimit="10" stroke-dasharray=""/><path fill="none" stroke="#000000" paint-order="fill stroke markers" d=" M 149.5 196 C 149.5 195.7238576251 149.7238576251 195.5 150 195.5 C 150.2761423749 195.5 150.5 195.7238576251 150.5 196 C 150.5 196.2761423749 150.2761423749 196.5 150 196.5 C 149.7238576251 196.5 149.5 196.2761423749 149.5 196" stroke-linecap="round" stroke-miterlimit="10" stroke-dasharray=""/><path fill="none" stroke="#000000" paint-order="fill stroke markers" d=" M 159.5 194 C 159.5 193.7238576251 159.7238576251 193.5 160 193.5 C 160.2761423749 193.5 160.5 193.7238576251 160.5 194 C 160.5 194.2761423749 160.2761423749 194.5 160 194.5 C 159.7238576251 194.5 159.5 194.2761423749 159.5 194" stroke-linecap="round" stroke-miterlimit="10" stroke-dasharray=""/><path fill="none" stroke="#000000" paint-order="fill stroke markers" d=" M 169.5 198 C 169.5 197.7238576251 169.7238576251 197.5 170 197.5 C 170.2761423749 197.5 170.5 197.7238576251 170.5 198 C 170.5 198.2761423749 170.2761423749 198.5 170 198.5 C 169.7238576251 198.5 169.5 198.2761423749 169.5 198" stroke-linecap="round" stroke-miterlimit="10" stroke-dasharray=""/><path fill="none" stroke="#000000" paint-order="fill stroke markers" d=" M 179.5 205 C 179.5 204.7238576251 179.7238576251 204.5 180 204.5 C 180.2761423749 204.5 180.5 204.7238576251 180.5 205 C 180.5 205.2761423749 180.2761423749 205.5 180 205.5 C 179.7238576251 205.5 179.5 205.2761423749 179.5 205" stroke-linecap="round" stroke-miterlimit="10" stroke-dasharray=""/><path fill="none" stroke="#000000" paint-order="fill stroke markers" d=" M 189.5 205 C 189.5 204.7238576251 189.7238576251 204.5 190 204.5 C 190.2761423749 204.5 190.5 204.7238576251 190.5 205 C 190.5 205.2761423749 190.2761423749 205.5 190 205.5 C 189.7238576251 205.5 189.5 205.2761423749 189.5 205" stroke-linecap="round" stroke-miterlimit="10" stroke-dasharray=""/><path fill="none" stroke="#000000" paint-order="fill stroke markers" d=" M 199.5 217 C 199.5 216.7238576251 199.7238576251 216.5 200 216.5 C 200.2761423749 216.5 200.5 216.7238576251 200.5 217 C 200.5 217.2761423749 200.2761423749 217.5 200 217.5 C 199.7238576251 217.5 199.5 217.2761423749 199.5 217" stroke-linecap="round" stroke-miterlimit="10" stroke-dasharray=""/><path fill="none" stroke="#000000" paint-order="fill stroke markers" d=" M 209.5 208 C 209.5 207.7238576251 209.7238576251 207.5 210 207.5 C 210.2761423749 207.5 210.5 207.7238576251 210.5 208 C 210.5 208.2761423749 210.2761423749 208.5 210 208.5 C 209.7238576251 208.5 209.5 208.2761423749 209.5 208" stroke-linecap="round" stroke-miterlimit="10" stroke-dasharray=""/><path fill="none" stroke="#000000" paint-order="fill stroke markers" d=" M 219.5 190 C 219.5 189.7238576251 219.7238576251 189.5 220 189.5 C 220.2761423749 189.5 220.5 189.7238576251 220.5 190 C 220.5 190.2761423749 220.2761423749 190.5 220 190.5 C 219.7238576251 190.5 219.5 190.2761423749 219.5 190" stroke-linecap="round" stroke-miterlimit="10" stroke-dasharray=""/><path fill="none" stroke="#000000" paint-order="fill stroke markers" d=" M 229.5 178 C 229.5 177.7238576251 229.7238576251 177.5 230 177.5 C 230.2761423749 177.5 230.5 177.7238576251 230.5 178 C 230.5 178.2761423749 230.2761423749 178.5 230 178.5 C 229.7238576251 178.5 229.5 178.2761423749 229.5 178" stroke-linecap="round" stroke-miterlimit="10" stroke-dasharray=""/><path fill="none" stroke="#000000" paint-order="fill stroke markers" d=" M 239.5 181 C 239.5 180.7238576251 239.7238576251 180.5 240 180.5 C 240.2761423749 180.5 240.5 180.7238576251 240.5 181 C 240.5 181.2761423749 240.2761423749 181.5 240 181.5 C 239.7238576251 181.5 239.5 181.2761423749 239.5 181" stroke-linecap="round" stroke-miterlimit="10" stroke-dasharray=""/><path fill="none" stroke="#000000" paint-order="fill stroke markers" d=" M 249.5 177 C 249.5 176.7238576251 249.7238576251 176.5 250 176.5 C 250.2761423749 176.5 250.5 176.7238576251 250.5 177 C 250.5 177.2761423749 250.2761423749 177.5 250 177.5 C 249.7238576251 177.5 249.5 177.2761423749 249.5 177" stroke-linecap="round" stroke-miterlimit="10" stroke-dasharray=""/><path fill="none" stroke="#000000" paint-order="fill stroke markers" d=" M 259.5 171 C 259.5 170.7238576251 259.7238576251 170.5 260 170.5 C 260.2761423749 170.5 260.5 170.7238576251 260.5 171 C 260.5 171.2761423749 260.2761423749 171.5 260 171.5 C 259.7238576251 171.5 259.5 171.2761423749 259.5 171" stroke-linecap="round" stroke-miterlimit="10" stroke-dasharray=""/><path fill="none" stroke="#000000" paint-order="fill stroke markers" d=" M 269.5 168 C 269.5 167.7238576251 269.7238576251 167.5 270 167.5 C 270.2761423749 167.5 270.5 167.7238576251 270.5 168 C 270.5 168.2761423749 270.2761423749 168.5 270 168.5 C 269.7238576251 168.5 269.5 168.2761423749 269.5 168" stroke-linecap="round" stroke-miterlimit="10" stroke-dasharray=""/><path fill="none" stroke="#000000" paint-order="fill stroke markers" d=" M 279.5 169 C 279.5 168.7238576251 279.7238576251 168.5 280 168.5 C 280.2761423749 168.5 280.5 168.7238576251 280.5 169 C 280.5 169.2761423749 280.2761423749 169.5 280 169.5 C 279.7238576251 169.5 279.5 169.2761423749 279.5 169" stroke-linecap="round" stroke-miterlimit="10" stroke-dasharray=""/><path fill="none" stroke="#000000" paint-order="fill stroke markers" d=" M 289.5 167 C 289.5 166.7238576251 289.7238576251 166.5 290 166.5 C 290.2761423749 166.5 290.5 166.7238576251 290.5 167 C 290.5 167.2761423749 290.2761423749 167.5 290 167.5 C 289.7238576251 167.5 289.5 167.2761423749 289.5 167" stroke-linecap="round" stroke-miterlimit="10" stroke-dasharray=""/><path fill="none" stroke="#000000" paint-order="fill stroke markers" d=" M 299.5 164 C 299.5 163.7238576251 299.7238576251 163.5 300 163.5 C 300.2761423749 163.5 300.5 163.7238576251 300.5 164 C 300.5 164.2761423749 300.2761423749 164.5 300 164.5 C 299.7238576251 164.5 299.5 164.2761423749 299.5 164" stroke-linecap="round" stroke-miterlimit="10" stroke-dasharray=""/><path fill="none" stroke="#000000" paint-order="fill stroke markers" d=" M 309.5 161 C 309.5 160.7238576251 309.7238576251 160.5 310 160.5 C 310.2761423749 160.5 310.5 160.7238576251 310.5 161 C 310.5 161.2761423749 310.2761423749 161.5 310 161.5 C 309.7238576251 161.5 309.5 161.2761423749 309.5 161" stroke-linecap="round" stroke-miterlimit="10" stroke-dasharray=""/><path fill="none" stroke="#000000" paint-order="fill stroke markers" d=" M 319.5 157 C 319.5 156.7238576251 319.7238576251 156.5 320 156.5 C 320.2761423749 156.5 320.5 156.7238576251 320.5 157 C 320.5 157.2761423749 320.2761423749 157.5 320 157.5 C 319.7238576251 157.5 319.5 157.2761423749 319.5 157" stroke-linecap="round" stroke-miterlimit="10" stroke-dasharray=""/><path fill="none" stroke="#000000" paint-order="fill stroke markers" d=" M 329.5 152 C 329.5 151.7238576251 329.7238576251 151.5 330 151.5 C 330.2761423749 151.5 330.5 151.7238576251 330.5 152 C 330.5 152.2761423749 330.2761423749 152.5 330 152.5 C 329.7238576251 152.5 329.5 152.2761423749 329.5 152" stroke-linecap="round" stroke-miterlimit="10" stroke-dasharray=""/><path fill="none" stroke="#000000" paint-order="fill stroke markers" d=" M 339.5 150 C 339.5 149.7238576251 339.7238576251 149.5 340 149.5 C 340.2761423749 149.5 340.5 149.7238576251 340.5 150 C 340.5 150.2761423749 340.2761423749 150.5 340 150.5 C 339.7238576251 150.5 339.5 150.2761423749 339.5 150" stroke-linecap="round" stroke-miterlimit="10" stroke-dasharray=""/><path fill="none" stroke="#000000" paint-order="fill stroke markers" d=" M 349.5 159 C 349.5 158.7238576251 349.7238576251 158.5 350 158.5 C 350.2761423749 158.5 350.5 158.7238576251 350.5 159 C 350.5 159.2761423749 350.2761423749 159.5 350 159.5 C 349.7238576251 159.5 349.5 159.2761423749 349.5 159" stroke-linecap="round" stroke-miterlimit="10" stroke-dasharray=""/><path fill="none" stroke="#000000" paint-order="fill stroke markers" d=" M 359.5 158 C 359.5 157.7238576251 359.7238576251 157.5 360 157.5 C 360.2761423749 157.5 360.5 157.7238576251 360.5 158 C 360.5 158.2761423749 360.2761423749 158.5 360 158.5 C 359.7238576251 158.5 359.5 158.2761423749 359.5 158" stroke-linecap="round" stroke-miterlimit="10" stroke-dasharray=""/><path fill="none" stroke="#000000" paint-order="fill stroke markers" d=" M 100 194 C 101.66666666666667 195.66666666666666 106.66666666666667 200.66666666666666 110 204 C 113.33333333333333 207.33333333333334 116.66666666666667 212.83333333333334 120 214 C 123.33333333333333 215.16666666666666 126.66666666666667 212.5 130 211 C 133.33333333333331 209.5 136.66666666666666 207.5 140 205 C 143.33333333333334 202.5 146.66666666666666 197.83333333333334 150 196 C 153.33333333333334 194.16666666666666 156.66666666666666 193.66666666666666 160 194 C 163.33333333333334 194.33333333333334 166.66666666666666 196.16666666666666 170 198 C 173.33333333333334 199.83333333333334 176.66666666666666 203.83333333333334 180 205 C 183.33333333333334 206.16666666666666 186.66666666666666 203 190 205 C 193.33333333333334 207 196.66666666666666 216.5 200 217 C 203.33333333333334 217.5 206.66666666666666 212.5 210 208 C 213.33333333333334 203.5 216.66666666666666 195 220 190 C 223.33333333333334 185 226.66666666666666 179.5 230 178 C 233.33333333333334 176.5 236.66666666666666 181.16666666666666 240 181 C 243.33333333333334 180.83333333333334 246.66666666666666 178.66666666666666 250 177 C 253.33333333333334 175.33333333333334 256.6666666666667 172.5 260 171 C 263.3333333333333 169.5 266.6666666666667 168.33333333333334 270 168 C 273.3333333333333 167.66666666666666 276.6666666666667 169.16666666666666 280 169 C 283.3333333333333 168.83333333333334 286.6666666666667 167.83333333333334 290 167 C 293.3333333333333 166.16666666666666 296.6666666666667 165 300 164 C 303.3333333333333 163 306.6666666666667 162.16666666666666 310 161 C 313.3333333333333 159.83333333333334 316.6666666666667 158.5 320 157 C 323.3333333333333 155.5 326.6666666666667 153.16666666666666 330 152 C 333.33333333333337 150.83333333333334 336.66666666666663 148.83333333333334 340 150 C 343.33333333333337 151.16666666666666 346.66666666666663 157.66666666666666 350 159 C 353.33333333333337 160.33333333333334 356.66666666666663 152.16666666666666 360 158" stroke-linecap="round" stroke-miterlimit="10" stroke-dasharray=""/></g></svg>