<svg version="1.1" xmlns="http://www.w3.org/2000/svg" xmlns:xlink="http://www.w3.org/1999/xlink" width="400" height="400" viewBox="0 0 400 400"><defs/><g><path fill="none" stroke="#000000" paint-order="fill stroke markers" d=" M 99.5 134.25 C 99.5 133.97385762509998 99.7238576251 133.75 100 133.75 C 100.2761423749 133.75 100.5 133.97385762509998 100.5 134.25 C 100.5 134.52614237490002 100.2761423749 134.75 100 134.75 C 99.7238576251 134.75 99.5 134.52614237490002 99.5 134.25" stroke-linecap="round" stroke-miterlimit="10" stroke-dasharray=""/><path fill="none" stroke="#000000" paint-order="fill stroke markers" d=" M 109.5 136.2 C 109.5 135.9238576251 109.7238576251 135.7 110 135.7 C 110.2761423749 135.7 110.5 135.9238576251 110.5 136.2 C 110.5 136.4761423749 110.2761423749 136.7 110 136.7 C 109.7238576251 136.7 109.5 136.4761423749 109.5 136.2" stroke-linecap="round" stroke-miterlimit="10" stroke-dasharray=""/><path fill="none" stroke="#000000" paint-order="fill stroke markers" d=" M 119.5 136.7 C 119.5 136.4238576251 119.7238576251 136.2 120 136.2 C 120.2761423749 136.2 120.5 136.4238576251 120.5 136.7 C 120.5 136.9761423749 120.2761423749 137.2 120 137.2 C 119.7238576251 137.2 119.5 136.9761423749 119.5 136.7" stroke-linecap="round" stroke-miterlimit="10" stroke-dasharray=""/><path fill="none" stroke="#000000" paint-order="fill stroke markers" d=" M 129.5 138.15 C 129.5 137.87385762510002 129.72385762509998 137.65 130 137.65 C 130.27614237490002 137.65 130.5 137.87385762510002 130.5 138.15 C 130.5 138.4261423749 130.27614237490002 138.65 130 138.65 C 129.72385762509998 138.65 129.5 138.4261423749 129.5 138.15" stroke-linecap="round" stroke-miterlimit="10" stroke-dasharray=""/><path fill="none" stroke="#000000" paint-order="fill stroke markers" d=" M 139.5 139.5 C 139.5 139.2238576251 139.7238576251 139 140 139 C 140.2761423749 139 140.5 139.2238576251 140.5 139.5 C 140.5 139.7761423749 140.2761423749 140 140 140 C 139.7238576251 140 139.5 139.7761423749 139.5 139.5" stroke-linecap="round" stroke-miterlimit="10" stroke-dasharray=""/><path fill="none" stroke="#000000" paint-order="fill stroke markers" d=" M 149.5 140.4 C 149.5 140.12385762510002 149.7238576251 139.9 150 139.9 C 150.2761423749 139.9 150.5 140.12385762510002 150.5 140.4 C 150.5 140.6761423749 150.2761423749 140.9 150 140.9 C 149.7238576251 140.9 149.5 140.6761423749 149.5 140.4" stroke-linecap="round" stroke-miterlimit="10" stroke-dasharray=""/><path fill="none" stroke="#000000" paint-order="fill stroke markers" d=" M 159.5 141.4 C 159.5 141.12385762510002 159.7238576251 140.9 160 140.9 C 160.2761423749 140.9 160.5 141.12385762510002 160.5 141.4 C 160.5 141.6761423749 160.2761423749 141.9 160 141.9 C 159.7238576251 141.9 159.5 141.6761423749 159.5 141.4" stroke-linecap="round" stroke-miterlimit="10" stroke-dasharray=""/><path fill="none" stroke="#000000" paint-order="fill stroke markers" d=" M 169.5 141.7 C 169.5 141.4238576251 169.7238576251 141.2 170 141.2 C 170.2761423749 141.2 170.5 141.4238576251 170.5 141.7 C 170.5 141.9761423749 170.2761423749 142.2 170 142.2 C 169.7238576251 142.2 169.5 141.9761423749 169.5 141.7" stroke-linecap="round" stroke-miterlimit="10" stroke-dasharray=""/><path fill="none" stroke="#000000" paint-order="fill stroke markers" d=" M 179.5 141.8 C 179.5 141.5238576251 179.7238576251 141.3 180 141.3 C 180.2761423749 141.3 180.5 141.5238576251 180.5 141.8 C 180.5 142.0761423749 180.2761423749 142.3 180 142.3 C 179.7238576251 142.3 179.5 142.0761423749 179.5 141.8" stroke-linecap="round" stroke-miterlimit="10" stroke-dasharray=""/><path fill="none" stroke="#000000" paint-order="fill stroke markers" d=" M 189.5 142.4 C 189.5 142.12385762510002 189.7238576251 141.9 190 141.9 C 190.2761423749 141.9 190.5 142.12385762510002 190.5 142.4 C 190.5 142.6761423749 190.2761423749 142.9 190 142.9 C 189.7238576251 142.9 189.5 142.6761423749 189.5 142.4" stroke-linecap="round" stroke-miterlimit="10" stroke-dasharray=""/><path fill="none" stroke="#000000" paint-order="fill stroke markers" d=" M 199.5 142.95 C 199.5 142.6738576251 199.7238576251 142.45 200 142.45 C 200.2761423749 142.45 200.5 142.6738576251 200.5 142.95 C 200.5 143.2261423749 200.2761423749 143.45 200 143.45 C 199.7238576251 143.45 199.5 143.2261423749 199.5 142.95" stroke-linecap="round" stroke-miterlimit="10" stroke-dasharray=""/><path fill="none" stroke="#000000" paint-order="fill stroke markers" d=" M 209.5 143.5 C 209.5 143.2238576251 209.7238576251 143 210 143 C 210.2761423749 143 210.5 143.2238576251 210.5 143.5 C 210.5 143.7761423749 210.2761423749 144 210 144 C 209.7238576251 144 209.5 143.7761423749 209.5 143.5" stroke-linecap="round" stroke-miterlimit="10" stroke-dasharray=""/><path fill="none" stroke="#000000" paint-order="fill stroke markers" d=" M 219.5 144.05 C 219.5 143.7738576251 219.7238576251 143.55 220 143.55 C 220.2761423749 143.55 220.5 143.7738576251 220.5 144.05 C 220.5 144.3261423749 220.2761423749 144.55 220 144.55 C 219.7238576251 144.55 219.5 144.3261423749 219.5 144.05" stroke-linecap="round" stroke-miterlimit="10" stroke-dasharray=""/><path fill="none" stroke="#000000" paint-order="fill stroke markers" d=" M 100 134.25 C 101.66666666666667 134.575 106.66666666666667 135.79166666666669 110 136.2 C 113.33333333333333 136.60833333333335 116.66666666666667 136.375 120 136.7 C 123.33333333333333 137.025 126.66666666666667 137.68333333333334 130 138.15 C 133.33333333333331 138.61666666666667 136.66666666666666 139.125 140 139.5 C 143.33333333333334 139.875 146.66666666666666 140.08333333333331 150 140.4 C 153.33333333333334 140.71666666666667 156.66666666666666 141.18333333333334 160 141.4 C 163.33333333333334 141.61666666666667 166.66666666666666 141.63333333333333 170 141.7 C 173.33333333333334 141.76666666666665 176.66666666666666 141.68333333333334 180 141.8 C 183.33333333333334 141.91666666666666 186.66666666666666 142.20833333333331 190 142.4 C 193.33333333333334 142.59166666666667 196.66666666666666 142.76666666666665 200 142.95 C 203.33333333333334 143.13333333333333 206.66666666666666 143.31666666666666 210 143.5 C 213.33333333333334 143.68333333333334 216.66666666666666 145.59166666666667 220 144.05" stroke-linecap="round" stroke-miterlimit="10" stroke-dasharray=""/></g></svg>