<svg version="1.1" xmlns="http://www.w3.org/2000/svg" xmlns:xlink="http://www.w3.org/1999/xlink" width="400" height="400" viewBox="0 0 400 400"><defs/><g><path fill="none" stroke="#000000" paint-order="fill stroke markers" d=" M 99.5 132.3 C 99.5 132.0238576251 99.7238576251 131.8 100 131.8 C 100.2761423749 131.8 100.5 132.0238576251 100.5 132.3 C 100.5 132.5761423749 100.2761423749 132.8 100 132.8 C 99.7238576251 132.8 99.5 132.5761423749 99.5 132.3" stroke-linecap="round" stroke-miterlimit="10" stroke-dasharray=""/><path fill="none" stroke="#000000" paint-order="fill stroke markers" d=" M 109.5 133.45 C 109.5 133.1738576251 109.7238576251 132.95 110 132.95 C 110.2761423749 132.95 110.5 133.1738576251 110.5 133.45 C 110.5 133.7261423749 110.2761423749 133.95 110 133.95 C 109.7238576251 133.95 109.5 133.7261423749 109.5 133.45" stroke-linecap="round" stroke-miterlimit="10" stroke-dasharray=""/><path fill="none" stroke="#000000" paint-order="fill stroke markers" d=" M 119.5 133.6 C 119.5 133.3238576251 119.7238576251 133.1 120 133.1 C 120.2761423749 133.1 120.5 133.3238576251 120.5 133.6 C 120.5 133.87614237489998 120.2761423749 134.1 120 134.1 C 119.7238576251 134.1 119.5 133.87614237489998 119.5 133.6" stroke-linecap="round" stroke-miterlimit="10" stroke-dasharray=""/><path fill="none" stroke="#000000" paint-order="fill stroke markers" d=" M 129.5 134.8 C 129.5 134.5238576251 129.72385762509998 134.3 130 134.3 C 130.27614237490002 134.3 130.5 134.5238576251 130.5 134.8 C 130.5 135.0761423749 130.27614237490002 135.3 130 135.3 C 129.72385762509998 135.3 129.5 135.0761423749 129.5 134.8" stroke-linecap="round" stroke-miterlimit="10" stroke-dasharray=""/><path fill="none" stroke="#000000" paint-order="fill stroke markers" d=" M 139.5 136.3 C 139.5 136.0238576251 139.7238576251 135.8 140 135.8 C 140.2761423749 135.8 140.5 136.0238576251 140.5 136.3 C 140.5 136.5761423749 140.2761423749 136.8 140 136.8 C 139.7238576251 136.8 139.5 136.5761423749 139.5 136.3" stroke-linecap="round" stroke-miterlimit="10" stroke-dasharray=""/><path fill="none" stroke="#000000" paint-order="fill stroke markers" d=" M 149.5 137.4 C 149.5 137.12385762510002 149.7238576251 136.9 150 136.9 C 150.2761423749 136.9 150.5 137.12385762510002 150.5 137.4 C 150.5 137.6761423749 150.2761423749 137.9 150 137.9 C 149.7238576251 137.9 149.5 137.6761423749 149.5 137.4" stroke-linecap="round" stroke-miterlimit="10" stroke-dasharray=""/><path fill="none" stroke="#000000" paint-order="fill stroke markers" d=" M 159.5 138.8 C 159.5 138.5238576251 159.7238576251 138.3 160 138.3 C 160.2761423749 138.3 160.5 138.5238576251 160.5 138.8 C 160.5 139.0761423749 160.2761423749 139.3 160 139.3 C 159.7238576251 139.3 159.5 139.0761423749 159.5 138.8" stroke-linecap="round" stroke-miterlimit="10" stroke-dasharray=""/><path fill="none" stroke="#000000" paint-order="fill stroke markers" d=" M 169.5 139.2 C 169.5 138.9238576251 169.7238576251 138.7 170 138.7 C 170.2761423749 138.7 170.5 138.9238576251 170.5 139.2 C 170.5 139.4761423749 170.2761423749 139.7 170 139.7 C 169.7238576251 139.7 169.5 139.4761423749 169.5 139.2" stroke-linecap="round" stroke-miterlimit="10" stroke-dasharray=""/><path fill="none" stroke="#000000" paint-order="fill stroke markers" d=" M 179.5 139.45 C 179.5 139.1738576251 179.7238576251 138.95 180 138.95 C 180.2761423749 138.95 180.5 139.1738576251 180.5 139.45 C 180.5 139.7261423749 180.2761423749 139.95 180 139.95 C 179.7238576251 139.95 179.5 139.7261423749 179.5 139.45" stroke-linecap="round" stroke-miterlimit="10" stroke-dasharray=""/><path fill="none" stroke="#000000" paint-order="fill stroke markers" d=" M 189.5 140.2 C 189.5 139.9238576251 189.7238576251 139.7 190 139.7 C 190.2761423749 139.7 190.5 139.9238576251 190.5 140.2 C 190.5 140.4761423749 190.2761423749 140.7 190 140.7 C 189.7238576251 140.7 189.5 140.4761423749 189.5 140.2" stroke-linecap="round" stroke-miterlimit="10" stroke-dasharray=""/><path fill="none" stroke="#000000" paint-order="fill stroke markers" d=" M 199.5 140.9 C 199.5 140.62385762510002 199.7238576251 140.4 200 140.4 C 200.2761423749 140.4 200.5 140.62385762510002 200.5 140.9 C 200.5 141.1761423749 200.2761423749 141.4 200 141.4 C 199.7238576251 141.4 199.5 141.1761423749 199.5 140.9" stroke-linecap="round" stroke-miterlimit="10" stroke-dasharray=""/><path fill="none" stroke="#000000" paint-order="fill stroke markers" d=" M 209.5 141.6 C 209.5 141.3238576251 209.7238576251 141.1 210 141.1 C 210.2761423749 141.1 210.5 141.3238576251 210.5 141.6 C 210.5 141.87614237489998 210.2761423749 142.1 210 142.1 C 209.7238576251 142.1 209.5 141.87614237489998 209.5 141.6" stroke-linecap="round" stroke-miterlimit="10" stroke-dasharray=""/><path fill="none" stroke="#000000" paint-order="fill stroke markers" d=" M 219.5 142.2 C 219.5 141.9238576251 219.7238576251 141.7 220 141.7 C 220.2761423749 141.7 220.5 141.9238576251 220.5 142.2 C 220.5 142.4761423749 220.2761423749 142.7 220 142.7 C 219.7238576251 142.7 219.5 142.4761423749 219.5 142.2" stroke-linecap="round" stroke-miterlimit="10" stroke-dasharray=""/><path fill="none" stroke="#000000" paint-order="fill stroke markers" d=" M 100 132.3 C 101.66666666666667 132.49166666666667 106.66666666666667 133.23333333333335 110 133.45 C 113.33333333333333 133.66666666666669 116.66666666666667 133.375 120 133.6 C 123.33333333333333 133.825 126.66666666666667 134.35 130 134.8 C 133.33333333333331 135.25 136.66666666666666 135.86666666666667 140 136.3 C 143.33333333333334 136.73333333333335 146.66666666666666 136.98333333333335 150 137.4 C 153.33333333333334 137.81666666666666 156.66666666666666 138.5 160 138.8 C 163.33333333333334 139.1 166.66666666666666 139.09166666666667 170 139.2 C 173.33333333333334 139.30833333333334 176.66666666666666 139.28333333333333 180 139.45 C 183.33333333333334 139.61666666666667 186.66666666666666 139.95833333333334 190 140.2 C 193.33333333333334 140.44166666666666 196.66666666666666 140.66666666666666 200 140.9 C 203.33333333333334 141.13333333333333 206.66666666666666 141.38333333333333 210 141.6 C 213.33333333333334 141.81666666666666 216.66666666666666 143.75 220 142.2" stroke-linecap="round" stroke-miterlimit="10" stroke-dasharray=""/></g></svg>