<svg version="1.1" xmlns="http://www.w3.org/2000/svg" xmlns:xlink="http://www.w3.org/1999/xlink" width="400" height="400" viewBox="0 0 400 400"><defs/><g><path fill="none" stroke="#000000" paint-order="fill stroke markers" d=" M 99.5 332 C 99.5 331.7238576251 99.7238576251 331.5 100 331.5 C 100.2761423749 331.5 100.5 331.7238576251 100.5 332 C 100.5 332.2761423749 100.2761423749 332.5 100 332.5 C 99.7238576251 332.5 99.5 332.2761423749 99.5 332" stroke-linecap="round" stroke-miterlimit="10" stroke-dasharray=""/><path fill="none" stroke="#000000" paint-order="fill stroke markers" d=" M 109.5 324.5 C 109.5 324.2238576251 109.7238576251 324 110 324 C 110.2761423749 324 110.5 324.2238576251 110.5 324.5 C 110.5 324.7761423749 110.2761423749 325 110 325 C 109.7238576251 325 109.5 324.7761423749 109.5 324.5" stroke-linecap="round" stroke-miterlimit="10" stroke-dasharray=""/><path fill="none" stroke="#000000" paint-order="fill stroke markers" d=" M 119.5 311 C 119.5 310.7238576251 119.7238576251 310.5 120 310.5 C 120.2761423749 310.5 120.5 310.7238576251 120.5 311 C 120.5 311.2761423749 120.2761423749 311.5 120 311.5 C 119.7238576251 311.5 119.5 311.2761423749 119.5 311" stroke-linecap="round" stroke-miterlimit="10" stroke-dasharray=""/><path fill="none" stroke="#000000" paint-order="fill stroke markers" d=" M 129.5 299.5 C 129.5 299.2238576251 129.72385762509998 299 130 299 C 130.27614237490002 299 130.5 299.2238576251 130.5 299.5 C 130.5 299.7761423749 130.27614237490002 300 130 300 C 129.72385762509998 300 129.5 299.7761423749 129.5 299.5" stroke-linecap="round" stroke-miterlimit="10" stroke-dasharray=""/><path fill="none" stroke="#000000" paint-order="fill stroke markers" d=" M 139.5 306.5 C 139.5 306.2238576251 139.7238576251 306 140 306 C 140.2761423749 306 140.5 306.2238576251 140.5 306.5 C 140.5 306.7761423749 140.2761423749 307 140 307 C 139.7238576251 307 139.5 306.7761423749 139.5 306.5" stroke-linecap="round" stroke-miterlimit="10" stroke-dasharray=""/><path fill="none" stroke="#000000" paint-order="fill stroke markers" d=" M 149.5 287.5 C 149.5 287.2238576251 149.7238576251 287 150 287 C 150.2761423749 287 150.5 287.2238576251 150.5 287.5 C 150.5 287.7761423749 150.2761423749 288 150 288 C 149.7238576251 288 149.5 287.7761423749 149.5 287.5" stroke-linecap="round" stroke-miterlimit="10" stroke-dasharray=""/><path fill="none" stroke="#000000" paint-order="fill stroke markers" d=" M 159.5 269.5 C 159.5 269.2238576251 159.7238576251 269 160 269 C 160.2761423749 269 160.5 269.2238576251 160.5 269.5 C 160.5 269.7761423749 160.2761423749 270 160 270 C 159.7238576251 270 159.5 269.7761423749 159.5 269.5" stroke-linecap="round" stroke-miterlimit="10" stroke-dasharray=""/><path fill="none" stroke="#000000" paint-order="fill stroke markers" d=" M 169.5 285 C 169.5 284.7238576251 169.7238576251 284.5 170 284.5 C 170.2761423749 284.5 170.5 284.7238576251 170.5 285 C 170.5 285.2761423749 170.2761423749 285.5 170 285.5 C 169.7238576251 285.5 169.5 285.2761423749 169.5 285" stroke-linecap="round" stroke-miterlimit="10" stroke-dasharray=""/><path fill="none" stroke="#000000" paint-order="fill stroke markers" d=" M 179.5 282.5 C 179.5 282.2238576251 179.7238576251 282 180 282 C 180.2761423749 282 180.5 282.2238576251 180.5 282.5 C 180.5 282.7761423749 180.2761423749 283 180 283 C 179.7238576251 283 179.5 282.7761423749 179.5 282.5" stroke-linecap="round" stroke-miterlimit="10" stroke-dasharray=""/><path fill="none" stroke="#000000" paint-order="fill stroke markers" d=" M 189.5 262 C 189.5 261.7238576251 189.7238576251 261.5 190 261.5 C 190.2761423749 261.5 190.5 261.7238576251 190.5 262 C 190.5 262.2761423749 190.2761423749 262.5 190 262.5 C 189.7238576251 262.5 189.5 262.2761423749 189.5 262" stroke-linecap="round" stroke-miterlimit="10" stroke-dasharray=""/><path fill="none" stroke="#000000" paint-order="fill stroke markers" d=" M 199.5 278.5 C 199.5 278.2238576251 199.7238576251 278 200 278 C 200.2761423749 278 200.5 278.2238576251 200.5 278.5 C 200.5 278.7761423749 200.2761423749 279 200 279 C 199.7238576251 279 199.5 278.7761423749 199.5 278.5" stroke-linecap="round" stroke-miterlimit="10" stroke-dasharray=""/><path fill="none" stroke="#000000" paint-order="fill stroke markers" d=" M 209.5 240.5 C 209.5 240.2238576251 209.7238576251 240 210 240 C 210.2761423749 240 210.5 240.2238576251 210.5 240.5 C 210.5 240.7761423749 210.2761423749 241 210 241 C 209.7238576251 241 209.5 240.7761423749 209.5 240.5" stroke-linecap="round" stroke-miterlimit="10" stroke-dasharray=""/><path fill="none" stroke="#000000" paint-order="fill stroke markers" d=" M 219.5 241 C 219.5 240.7238576251 219.7238576251 240.5 220 240.5 C 220.2761423749 240.5 220.5 240.7238576251 220.5 241 C 220.5 241.2761423749 220.2761423749 241.5 220 241.5 C 219.7238576251 241.5 219.5 241.2761423749 219.5 241" stroke-linecap="round" stroke-miterlimit="10" stroke-dasharray=""/><path fill="none" stroke="#000000" paint-order="fill stroke markers" d=" M 229.5 249 C 229.5 248.7238576251 229.7238576251 248.5 230 248.5 C 230.2761423749 248.5 230.5 248.7238576251 230.5 249 C 230.5 249.2761423749 230.2761423749 249.5 230 249.5 C 229.7238576251 249.5 229.5 249.2761423749 229.5 249" stroke-linecap="round" stroke-miterlimit="10" stroke-dasharray=""/><path fill="none" stroke="#000000" paint-order="fill stroke markers" d=" M 239.5 248 C 239.5 247.7238576251 239.7238576251 247.5 240 247.5 C 240.2761423749 247.5 240.5 247.7238576251 240.5 248 C 240.5 248.2761423749 240.2761423749 248.5 240 248.5 C 239.7238576251 248.5 239.5 248.2761423749 239.5 248" stroke-linecap="round" stroke-miterlimit="10" stroke-dasharray=""/><path fill="none" stroke="#000000" paint-order="fill stroke markers" d=" M 249.5 286.5 C 249.5 286.2238576251 249.7238576251 286 250 286 C 250.2761423749 286 250.5 286.2238576251 250.5 286.5 C 250.5 286.7761423749 250.2761423749 287 250 287 C 249.7238576251 287 249.5 286.7761423749 249.5 286.5" stroke-linecap="round" stroke-miterlimit="10" stroke-dasharray=""/><path fill="none" stroke="#000000" paint-order="fill stroke markers" d=" M 259.5 302.5 C 259.5 302.2238576251 259.7238576251 302 260 302 C 260.2761423749 302 260.5 302.2238576251 260.5 302.5 C 260.5 302.7761423749 260.2761423749 303 260 303 C 259.7238576251 303 259.5 302.7761423749 259.5 302.5" stroke-linecap="round" stroke-miterlimit="10" stroke-dasharray=""/><path fill="none" stroke="#000000" paint-order="fill stroke markers" d=" M 269.5 293 C 269.5 292.7238576251 269.7238576251 292.5 270 292.5 C 270.2761423749 292.5 270.5 292.7238576251 270.5 293 C 270.5 293.2761423749 270.2761423749 293.5 270 293.5 C 269.7238576251 293.5 269.5 293.2761423749 269.5 293" stroke-linecap="round" stroke-miterlimit="10" stroke-dasharray=""/><path fill="none" stroke="#000000" paint-order="fill stroke markers" d=" M 279.5 222.5 C 279.5 222.2238576251 279.7238576251 222 280 222 C 280.2761423749 222 280.5 222.2238576251 280.5 222.5 C 280.5 222.7761423749 280.2761423749 223 280 223 C 279.7238576251 223 279.5 222.7761423749 279.5 222.5" stroke-linecap="round" stroke-miterlimit="10" stroke-dasharray=""/><path fill="none" stroke="#000000" paint-order="fill stroke markers" d=" M 289.5 240 C 289.5 239.7238576251 289.7238576251 239.5 290 239.5 C 290.2761423749 239.5 290.5 239.7238576251 290.5 240 C 290.5 240.2761423749 290.2761423749 240.5 290 240.5 C 289.7238576251 240.5 289.5 240.2761423749 289.5 240" stroke-linecap="round" stroke-miterlimit="10" stroke-dasharray=""/><path fill="none" stroke="#000000" paint-order="fill stroke markers" d=" M 100 332 C 101.66666666666667 330.75 106.66666666666667 328 110 324.5 C 113.33333333333333 321 116.66666666666667 315.1666666666667 120 311 C 123.33333333333333 306.8333333333333 126.66666666666667 300.25 130 299.5 C 133.33333333333331 298.75 136.66666666666666 308.5 140 306.5 C 143.33333333333334 304.5 146.66666666666666 293.6666666666667 150 287.5 C 153.33333333333334 281.3333333333333 156.66666666666666 269.9166666666667 160 269.5 C 163.33333333333334 269.0833333333333 166.66666666666666 282.8333333333333 170 285 C 173.33333333333334 287.1666666666667 176.66666666666666 286.3333333333333 180 282.5 C 183.33333333333334 278.6666666666667 186.66666666666666 262.6666666666667 190 262 C 193.33333333333334 261.3333333333333 196.66666666666666 282.0833333333333 200 278.5 C 203.33333333333334 274.9166666666667 206.66666666666666 246.75 210 240.5 C 213.33333333333334 234.25 216.66666666666666 239.58333333333334 220 241 C 223.33333333333334 242.41666666666666 226.66666666666666 247.83333333333334 230 249 C 233.33333333333334 250.16666666666666 236.66666666666666 241.75 240 248 C 243.33333333333334 254.25 246.66666666666666 277.4166666666667 250 286.5 C 253.33333333333334 295.5833333333333 256.6666666666667 301.4166666666667 260 302.5 C 263.3333333333333 303.5833333333333 266.6666666666667 306.3333333333333 270 293 C 273.3333333333333 279.6666666666667 276.6666666666667 231.33333333333334 280 222.5 C 283.3333333333333 213.66666666666666 286.6666666666667 221.75 290 240" stroke-linecap="round" stroke-miterlimit="10" stroke-dasharray=""/></g></svg>