<svg version="1.1" xmlns="http://www.w3.org/2000/svg" xmlns:xlink="http://www.w3.org/1999/xlink" width="400" height="400" viewBox="0 0 400 400"><defs/><g><rect fill="rgb(255,255,255)" stroke="none" x="0" y="0" width="400" height="400" transform="matrix(1 0 0 1 0 0)" fill-opacity="1"/><path fill="none" stroke="rgb(255,0,0)" paint-order="fill stroke markers" d=" M 200 306 L 200 102.5" stroke-opacity="1" stroke-linecap="round" stroke-miterlimit="10" stroke-dasharray=""/><path fill="none" stroke="rgb(255,0,0)" paint-order="fill stroke markers" d=" M 200 306 L 120 266 L 200 306 L 280 266" stroke-opacity="1" stroke-linecap="round" stroke-miterlimit="10" stroke-dasharray=""/><path fill="none" stroke="rgb(255,0,0)" paint-order="fill stroke markers" d=" M 200 297 L 122 256 L 200 297 L 278 256" stroke-opacity="1" stroke-linecap="round" stroke-miterlimit="10" stroke-dasharray=""/><path fill="none" stroke="rgb(255,0,0)" paint-order="fill stroke markers" d=" M 200 288 L 124 246 L 200 288 L 276 246" stroke-opacity="1" stroke-linecap="round" stroke-miterlimit="10" stroke-dasharray=""/><path fill="none" stroke="rgb(255,0,0)" paint-order="fill stroke markers" d=" M 200 279 L 126 236 L 200 279 L 274 236" stroke-opacity="1" stroke-linecap="round" stroke-miterlimit="10" stroke-dasharray=""/><path fill="none" stroke="rgb(255,0,0)" paint-order="fill stroke markers" d=" M 200 270 L 128 226 L 200 270 L 272 226" stroke-opacity="1" stroke-linecap="round" stroke-miterlimit="10" stroke-dasharray=""/><path fill="none" stroke="rgb(255,0,0)" paint-order="fill stroke markers" d=" M 200 261 L 130 216 L 200 261 L 270 216" stroke-opacity="1" stroke-linecap="round" stroke-miterlimit="10" stroke-dasharray=""/><path fill="none" stroke="rgb(255,0,0)" paint-order="fill stroke markers" d=" M 200 252 L 132 206 L 200 252 L 268 206" stroke-opacity="1" stroke-linecap="round" stroke-miterlimit="10" stroke-dasharray=""/><path fill="none" stroke="rgb(255,0,0)" paint-order="fill stroke markers" d=" M 200 243 L 134 196 L 200 243 L 266 196" stroke-opacity="1" stroke-linecap="round" stroke-miterlimit="10" stroke-dasharray=""/><path fill="none" stroke="rgb(255,0,0)" paint-order="fill stroke markers" d=" M 200 234 L 136 186 L 200 234 L 264 186" stroke-opacity="1" stroke-linecap="round" stroke-miterlimit="10" stroke-dasharray=""/><path fill="none" stroke="rgb(255,0,0)" paint-order="fill stroke markers" d=" M 200 225 L 138 176 L 200 225 L 262 176" stroke-opacity="1" stroke-linecap="round" stroke-miterlimit="10" stroke-dasharray=""/><path fill="none" stroke="rgb(255,0,0)" paint-order="fill stroke markers" d=" M 200 216 L 140 166 L 200 216 L 260 166" stroke-opacity="1" stroke-linecap="round" stroke-miterlimit="10" stroke-dasharray=""/><path fill="none" stroke="rgb(255,0,0)" paint-order="fill stroke markers" d=" M 200 207 L 142 156 L 200 207 L 258 156" stroke-opacity="1" stroke-linecap="round" stroke-miterlimit="10" stroke-dasharray=""/><path fill="none" stroke="rgb(255,0,0)" paint-order="fill stroke markers" d=" M 200 198 L 144 146 L 200 198 L 256 146" stroke-opacity="1" stroke-linecap="round" stroke-miterlimit="10" stroke-dasharray=""/><path fill="none" stroke="rgb(255,0,0)" paint-order="fill stroke markers" d=" M 200 189 L 146 136 L 200 189 L 254 136" stroke-opacity="1" stroke-linecap="round" stroke-miterlimit="10" stroke-dasharray=""/><path fill="none" stroke="rgb(255,0,0)" paint-order="fill stroke markers" d=" M 200 180 L 148 126 L 200 180 L 252 126" stroke-opacity="1" stroke-linecap="round" stroke-miterlimit="10" stroke-dasharray=""/><path fill="none" stroke="rgb(255,0,0)" paint-order="fill stroke markers" d=" M 200 171 L 150 116 L 200 171 L 250 116" stroke-opacity="1" stroke-linecap="round" stroke-miterlimit="10" stroke-dasharray=""/><path fill="none" stroke="rgb(255,0,0)" paint-order="fill stroke markers" d=" M 200 162 L 152 106 L 200 162 L 248 106" stroke-opacity="1" stroke-linecap="round" stroke-miterlimit="10" stroke-dasharray=""/><path fill="none" stroke="rgb(255,0,0)" paint-order="fill stroke markers" d=" M 200 153 L 154 96 L 200 153 L 246 96" stroke-opacity="1" stroke-linecap="round" stroke-miterlimit="10" stroke-dasharray=""/><path fill="none" stroke="rgb(255,0,0)" paint-order="fill stroke markers" d=" M 200 144 L 156 86 L 200 144 L 244 86" stroke-opacity="1" stroke-linecap="round" stroke-miterlimit="10" stroke-dasharray=""/><path fill="none" stroke="rgb(255,0,0)" paint-order="fill stroke markers" d=" M 200 135 L 158 76 L 200 135 L 242 76" stroke-opacity="1" stroke-linecap="round" stroke-miterlimit="10" stroke-dasharray=""/><path fill="none" stroke="rgb(255,0,0)" paint-order="fill stroke markers" d=" M 200 126 L 160 66 L 200 126 L 240 66" stroke-opacity="1" stroke-linecap="round" stroke-miterlimit="10" stroke-dasharray=""/><path fill="none" stroke="rgb(255,0,0)" paint-order="fill stroke markers" d=" M 200 117 L 162 56 L 200 117 L 238 56" stroke-opacity="1" stroke-linecap="round" stroke-miterlimit="10" stroke-dasharray=""/><path fill="none" stroke="rgb(0,0,0)" paint-order="fill stroke markers" d=" M 200 108 Q 260 174 260 240 Q 260 300 205 306 L 205 336 L 195 336 L 195 306 Q 140 300 140 240 Q 140 174 200 108" stroke-opacity="1" stroke-linecap="round" stroke-miterlimit="10" stroke-dasharray=""/><path fill="none" stroke="rgb(0,0,0)" paint-order="fill stroke markers" d=" M 204.99923847578197 130.0872620321864 C 204.9987308316312 130.1163449461052 204.99796926876365 130.14542785867445 204.99695413509548 130.1744974835125 C 204.9959390014273 130.20356710835057 204.99466998773892 130.23263230034672 204.99314767377288 130.26167978121472 C 204.99162535980682 130.29072726208273 204.9898492818515 130.3197658799667 204.98782025129913 130.3487823687206 C 204.98579122074676 130.37779885747455 204.98350861953503 130.40680205580202 204.98097349045872 130.43577871373827 C 204.97843836138244 130.46475537167456 204.97564993221673 130.49371431579036 204.97260947684137 130.52264231633825 C 204.96956902146601 130.55157031688617 204.96627561372887 130.5804761856154 204.96273075820662 130.60934671702574 C 204.95918590268437 130.6382172484361 204.95538851957969 130.66706123677108 204.95134034370784 130.69586550480034 C 204.94729216783603 130.72466977282954 204.9429919660835 130.75344309461212 204.9384417029757 130.78217232520115 C 204.9338914398679 130.81090155579022 204.9290897293506 130.83959544638773 204.92403876506103 130.86824088833464 C 204.91898780077148 130.89688633028157 204.913686044137 130.92549204925703 204.90813591723833 130.95404497688273 C 204.90258579033966 130.98259790450842 204.8967856025544 131.0111067382827 204.89073800366901 131.0395584540888 C 204.88469040478367 131.06801016989488 204.87839355264103 131.09641343440106 204.87185032392617 131.12475527171932 C 204.86530709521134 131.1530971090376 204.85851549679344 131.18138615236614 204.85147863138 131.20960947799836 C 204.8444417659665 131.23783280363057 204.83715749006006 131.26599900866483 204.82962913144533 131.2940952255126 C 204.82210077283062 131.32219144236038 204.81432603829663 131.35022622940147 204.8063084796916 131.378186779085 C 204.79829092108656 131.4061473287685 204.79002809618447 131.4340421581487 204.7815237798152 131.46185852361367 C 204.77301946344588 131.48967488907863 204.7642710651122 131.51742126376274 204.75528258147577 131.54508497187476 C 204.74629409783932 131.57274867998677 204.73706279092096 131.60033814816018 204.72759287799659 131.62784077228577 C 204.7181229650722 131.65534339641138 204.70841156151465 131.6827675540549 204.69846310392956 131.71010071662835 C 204.68851464634446 131.7374338792018 204.67832610433527 131.7646843726513 204.667902132486 131.7918397477265 C 204.65747816063674 131.8189951228017 204.64681558370458 131.84606365129292 204.63591927283395 131.87303296707955 C 204.6250229619633 131.9000022828662 204.61388959803236 131.92688060106312 204.6025242672622 131.95365564244636 C 204.59115893649204 131.9804306838296 204.57955817689282 132.00711060433616 204.567727288213 132.033683215379 C 204.55589639953317 132.06025582642184 204.54383177796944 132.08672922227578 204.53153893518325 132.1130913087035 C 204.51924609239705 132.13945339513123 204.5067212838694 132.16571220227968 204.49397023149584 132.19185573394537 C 204.48121917912226 132.2179992656111 204.46823799880872 132.24403548536705 204.45503262094184 132.26995249869773 C 204.44182724307498 132.29586951202842 204.42839364516877 132.32167521350712 204.41473796429463 132.34735781392945 C 204.4010822834205 132.37304041435178 204.3872003599257 132.39860773688662 204.37309853569698 132.42404810123168 C 204.35899671146825 132.4494884655768 204.34467069095325 132.47480962111356 204.33012701892218 132.5 C 204.31558334689112 132.52519037888644 204.30081759320058 132.55025765435593 204.28583650351055 132.5751903745503 C 204.27085541382056 132.60012309474462 204.25565442474604 132.6249288544119 204.24024048078212 132.64959632116603 C 204.22482653681823 132.67426378792015 204.2091949427283 132.69880047571053 204.1933528397271 132.72319517507515 C 204.17751073672596 132.74758987443977 204.16145329915557 132.7718500162404 204.1451878627752 132.79596451735375 C 204.12892242639484 132.82007901846708 204.11244403659504 132.8440552244038 204.09576022144495 132.86788218175525 C 204.0790764062949 132.89170913910667 204.0621820837428 132.91539410579486 204.04508497187473 132.93892626146237 C 204.02798786000665 132.96245841712988 204.01068275087664 132.98584492989926 203.99317755023645 133.00907511576025 C 203.97567234959627 133.03230530162122 203.9579617251922 133.05538623671345 203.9400537680336 133.0783073766283 C 203.922145810875 133.10122851654313 203.90403506602465 133.1239968432818 203.88572980728486 133.1466019552492 C 203.86742454854507 133.16920706721658 203.84891919995673 133.1916558501488 203.8302222155949 133.21393804843268 C 203.81152523123305 133.23622024671658 203.79263091581518 133.2583426477256 203.77354790111386 133.28029514495253 C 203.75446488641253 133.30224764217945 203.73518735955665 133.32403692256764 203.71572412738698 133.34565303179428 C 203.6962608952173 133.36726914102093 203.6766060290448 133.38871866356237 203.65676850809587 133.4099918003125 C 203.6369309871469 133.43126493706262 203.61690476872045 133.45236816802495 203.59669900169325 133.473291852295 C 203.57649323466606 133.49421553656504 203.5561017641658 133.5149660476997 203.53553390593274 133.53553390593274 C 203.5149660476997 133.5561017641658 203.49421553656504 133.57649323466606 203.47329185229498 133.59669900169325 C 203.45236816802495 133.61690476872045 203.43126493706262 133.6369309871469 203.4099918003125 133.65676850809587 C 203.38871866356237 133.67660602904482 203.36726914102096 133.6962608952173 203.34565303179428 133.71572412738698 C 203.32403692256764 133.73518735955665 203.30224764217948 133.75446488641253 203.28029514495253 133.77354790111386 C 203.2583426477256 133.79263091581518 203.23622024671658 133.81152523123305 203.2139380484327 133.8302222155949 C 203.1916558501488 133.84891919995673 203.16920706721658 133.86742454854507 203.1466019552492 133.88572980728486 C 203.1239968432818 133.90403506602465 203.1012285165431 133.922145810875 203.0783073766283 133.9400537680336 C 203.05538623671347 133.9579617251922 203.03230530162122 133.97567234959627 203.00907511576025 133.99317755023645 C 202.98584492989926 134.01068275087664 202.96245841712988 134.02798786000665 202.93892626146237 134.04508497187476 C 202.91539410579486 134.0621820837428 202.89170913910667 134.0790764062949 202.86788218175522 134.09576022144495 C 202.8440552244038 134.11244403659504 202.82007901846708 134.12892242639484 202.79596451735372 134.1451878627752 C 202.7718500162404 134.16145329915557 202.74758987443974 134.17751073672596 202.72319517507515 134.19335283972714 C 202.69880047571053 134.2091949427283 202.67426378792018 134.22482653681823 202.64959632116603 134.24024048078212 C 202.62492885441188 134.25565442474604 202.60012309474462 134.27085541382056 202.57519037455026 134.28583650351055 C 202.55025765435593 134.30081759320058 202.52519037888644 134.31558334689112 202.5 134.3301270189222 C 202.47480962111356 134.34467069095325 202.44948846557676 134.35899671146825 202.42404810123168 134.37309853569698 C 202.3986077368866 134.3872003599257 202.37304041435178 134.4010822834205 202.34735781392945 134.41473796429463 C 202.32167521350712 134.42839364516877 202.29586951202842 134.44182724307495 202.26995249869773 134.45503262094184 C 202.24403548536705 134.46823799880872 202.2179992656111 134.48121917912226 202.19185573394537 134.49397023149584 C 202.16571220227968 134.5067212838694 202.13945339513123 134.51924609239705 202.1130913087035 134.53153893518325 C 202.08672922227578 134.54383177796944 202.06025582642187 134.5558963995332 202.033683215379 134.567727288213 C 202.00711060433613 134.57955817689282 201.9804306838296 134.59115893649204 201.95365564244636 134.6025242672622 C 201.92688060106312 134.61388959803236 201.9000022828662 134.62502296196328 201.87303296707955 134.63591927283392 C 201.84606365129292 134.64681558370455 201.8189951228017 134.65747816063674 201.7918397477265 134.667902132486 C 201.7646843726513 134.67832610433527 201.7374338792018 134.68851464634446 201.71010071662835 134.69846310392956 C 201.6827675540549 134.70841156151465 201.65534339641138 134.7181229650722 201.6278407722858 134.72759287799659 C 201.60033814816018 134.73706279092096 201.57274867998674 134.74629409783932 201.54508497187473 134.75528258147577 C 201.5174212637627 134.7642710651122 201.48967488907863 134.77301946344588 201.46185852361367 134.7815237798152 C 201.4340421581487 134.79002809618447 201.4061473287685 134.79829092108656 201.37818677908498 134.8063084796916 C 201.35022622940147 134.81432603829663 201.32219144236038 134.8221007728306 201.2940952255126 134.82962913144536 C 201.26599900866483 134.83715749006006 201.23783280363054 134.8444417659665 201.20960947799833 134.85147863137996 C 201.18138615236612 134.85851549679344 201.1530971090376 134.86530709521134 201.12475527171932 134.8718503239262 C 201.09641343440106 134.87839355264103 201.0680101698949 134.88469040478367 201.0395584540888 134.89073800366901 C 201.0111067382827 134.8967856025544 200.98259790450842 134.90258579033966 200.95404497688273 134.90813591723833 C 200.92549204925703 134.913686044137 200.89688633028157 134.91898780077148 200.86824088833464 134.92403876506103 C 200.83959544638773 134.9290897293506 200.8109015557902 134.9338914398679 200.78217232520115 134.9384417029757 C 200.7534430946121 134.9429919660835 200.72466977282957 134.94729216783605 200.69586550480034 134.95134034370784 C 200.6670612367711 134.95538851957969 200.6382172484361 134.95918590268434 200.60934671702574 134.9627307582066 C 200.5804761856154 134.96627561372884 200.55157031688617 134.96956902146601 200.52264231633828 134.97260947684137 C 200.49371431579036 134.97564993221673 200.46475537167456 134.97843836138242 200.4357787137383 134.98097349045872 C 200.40680205580202 134.98350861953503 200.37779885747455 134.98579122074676 200.34878236872063 134.98782025129913 C 200.3197658799667 134.9898492818515 200.29072726208275 134.9916253598068 200.26167978121472 134.99314767377285 C 200.2326323003467 134.99466998773892 200.20356710835057 134.9959390014273 200.1744974835125 134.99695413509548 C 200.14542785867445 134.99796926876365 200.11634494610516 134.99873083163118 200.08726203218643 134.99923847578197 C 200.05817911826767 134.9997461199327 200.02908734406213 135 200 135 C 199.97091265593787 135 199.94182088173233 134.9997461199327 199.91273796781357 134.99923847578197 C 199.88365505389484 134.99873083163118 199.85457214132555 134.99796926876365 199.8255025164875 134.99695413509548 C 199.79643289164943 134.9959390014273 199.7673676996533 134.99466998773892 199.73832021878528 134.99314767377285 C 199.70927273791727 134.9916253598068 199.6802341200333 134.9898492818515 199.65121763127937 134.98782025129913 C 199.62220114252545 134.98579122074676 199.59319794419798 134.98350861953503 199.5642212862617 134.98097349045872 C 199.53524462832544 134.97843836138242 199.50628568420964 134.97564993221673 199.47735768366172 134.97260947684137 C 199.44842968311383 134.96956902146601 199.4195238143846 134.96627561372887 199.39065328297426 134.96273075820662 C 199.3617827515639 134.95918590268437 199.3329387632289 134.95538851957969 199.30413449519966 134.95134034370784 C 199.27533022717043 134.94729216783605 199.2465569053879 134.9429919660835 199.21782767479885 134.9384417029757 C 199.1890984442098 134.9338914398679 199.16040455361227 134.9290897293506 199.13175911166536 134.92403876506103 C 199.10311366971843 134.91898780077148 199.07450795074297 134.913686044137 199.04595502311727 134.90813591723833 C 199.01740209549158 134.90258579033966 198.9888932617173 134.8967856025544 198.9604415459112 134.89073800366901 C 198.9319898301051 134.88469040478367 198.90358656559894 134.87839355264103 198.87524472828068 134.8718503239262 C 198.8469028909624 134.86530709521134 198.81861384763388 134.85851549679344 198.79039052200167 134.85147863137996 C 198.76216719636946 134.8444417659665 198.73400099133517 134.83715749006006 198.7059047744874 134.82962913144536 C 198.67780855763962 134.8221007728306 198.64977377059853 134.81432603829663 198.62181322091502 134.8063084796916 C 198.5938526712315 134.79829092108656 198.5659578418513 134.79002809618447 198.53814147638633 134.7815237798152 C 198.51032511092137 134.77301946344588 198.4825787362373 134.7642710651122 198.45491502812527 134.75528258147577 C 198.42725132001326 134.74629409783932 198.39966185183982 134.73706279092096 198.3721592277142 134.72759287799659 C 198.34465660358862 134.7181229650722 198.3172324459451 134.70841156151465 198.28989928337165 134.69846310392956 C 198.2625661207982 134.68851464634446 198.2353156273487 134.67832610433527 198.2081602522735 134.667902132486 C 198.1810048771983 134.65747816063674 198.15393634870708 134.64681558370455 198.12696703292045 134.63591927283392 C 198.0999977171338 134.62502296196328 198.07311939893688 134.61388959803236 198.04634435755364 134.6025242672622 C 198.0195693161704 134.59115893649204 197.99288939566387 134.57955817689282 197.966316784621 134.567727288213 C 197.93974417357813 134.5558963995332 197.91327077772422 134.54383177796944 197.8869086912965 134.53153893518325 C 197.86054660486877 134.51924609239705 197.83428779772032 134.5067212838694 197.80814426605463 134.49397023149584 C 197.7820007343889 134.48121917912226 197.75596451463295 134.46823799880872 197.73004750130227 134.45503262094184 C 197.70413048797158 134.44182724307495 197.67832478649288 134.42839364516877 197.65264218607055 134.41473796429463 C 197.62695958564822 134.4010822834205 197.6013922631134 134.3872003599257 197.57595189876832 134.37309853569698 C 197.55051153442324 134.35899671146825 197.52519037888644 134.34467069095325 197.5 134.3301270189222 C 197.47480962111356 134.31558334689112 197.44974234564407 134.30081759320058 197.42480962544974 134.28583650351055 C 197.39987690525538 134.27085541382056 197.37507114558812 134.25565442474604 197.35040367883397 134.24024048078212 C 197.32573621207985 134.22482653681823 197.30119952428947 134.2091949427283 197.27680482492485 134.19335283972714 C 197.25241012556026 134.17751073672596 197.2281499837596 134.16145329915557 197.20403548264628 134.1451878627752 C 197.17992098153292 134.12892242639484 197.1559447755962 134.11244403659504 197.13211781824478 134.09576022144495 C 197.10829086089333 134.0790764062949 197.08460589420514 134.0621820837428 197.06107373853763 134.04508497187476 C 197.03754158287012 134.02798786000665 197.01415507010074 134.01068275087664 196.99092488423975 133.99317755023645 C 196.96769469837878 133.97567234959627 196.94461376328653 133.9579617251922 196.9216926233717 133.9400537680336 C 196.8987714834569 133.922145810875 196.8760031567182 133.90403506602465 196.8533980447508 133.88572980728486 C 196.83079293278342 133.86742454854507 196.8083441498512 133.84891919995673 196.7860619515673 133.8302222155949 C 196.76377975328342 133.81152523123305 196.7416573522744 133.79263091581518 196.71970485504747 133.77354790111386 C 196.69775235782052 133.75446488641253 196.67596307743236 133.73518735955665 196.65434696820572 133.71572412738698 C 196.63273085897904 133.6962608952173 196.61128133643763 133.67660602904482 196.5900081996875 133.65676850809587 C 196.56873506293738 133.6369309871469 196.54763183197505 133.61690476872045 196.52670814770502 133.59669900169325 C 196.50578446343496 133.57649323466606 196.4850339523003 133.5561017641658 196.46446609406726 133.53553390593274 C 196.4438982358342 133.5149660476997 196.42350676533394 133.49421553656504 196.40330099830675 133.473291852295 C 196.38309523127955 133.45236816802495 196.3630690128531 133.43126493706262 196.34323149190413 133.4099918003125 C 196.3233939709552 133.38871866356237 196.3037391047827 133.36726914102093 196.28427587261302 133.34565303179428 C 196.26481264044335 133.32403692256764 196.24553511358747 133.30224764217945 196.22645209888614 133.28029514495253 C 196.20736908418482 133.2583426477256 196.18847476876695 133.23622024671658 196.1697777844051 133.21393804843268 C 196.15108080004327 133.1916558501488 196.13257545145493 133.16920706721658 196.11427019271514 133.1466019552492 C 196.09596493397535 133.1239968432818 196.077854189125 133.10122851654313 196.0599462319664 133.0783073766283 C 196.0420382748078 133.05538623671345 196.02432765040373 133.03230530162122 196.00682244976355 133.00907511576025 C 195.98931724912336 132.98584492989926 195.97201213999335 132.96245841712988 195.95491502812527 132.93892626146237 C 195.9378179162572 132.91539410579486 195.9209235937051 132.89170913910667 195.90423977855505 132.86788218175525 C 195.88755596340496 132.8440552244038 195.87107757360516 132.82007901846708 195.8548121372248 132.79596451735375 C 195.83854670084443 132.7718500162404 195.82248926327404 132.74758987443977 195.8066471602729 132.72319517507515 C 195.79080505727174 132.69880047571053 195.77517346318177 132.67426378792015 195.75975951921788 132.64959632116603 C 195.74434557525396 132.6249288544119 195.72914458617944 132.60012309474462 195.71416349648945 132.5751903745503 C 195.69918240679942 132.55025765435593 195.68441665310888 132.52519037888644 195.66987298107782 132.5 C 195.65532930904675 132.47480962111356 195.64100328853175 132.4494884655768 195.62690146430302 132.42404810123168 C 195.6127996400743 132.39860773688662 195.5989177165795 132.37304041435178 195.58526203570537 132.34735781392945 C 195.57160635483123 132.32167521350712 195.55817275692502 132.29586951202842 195.54496737905816 132.26995249869773 C 195.53176200119128 132.24403548536705 195.51878082087774 132.2179992656111 195.50602976850416 132.19185573394537 C 195.4932787161306 132.16571220227968 195.48075390760295 132.13945339513123 195.46846106481675 132.1130913087035 C 195.45616822203056 132.08672922227578 195.44410360046683 132.06025582642184 195.432272711787 132.033683215379 C 195.42044182310718 132.00711060433616 195.40884106350796 131.9804306838296 195.3974757327378 131.95365564244636 C 195.38611040196764 131.92688060106312 195.3749770380367 131.9000022828662 195.36408072716605 131.87303296707955 C 195.35318441629542 131.84606365129292 195.34252183936326 131.8189951228017 195.332097867514 131.7918397477265 C 195.32167389566473 131.7646843726513 195.31148535365554 131.7374338792018 195.30153689607044 131.71010071662835 C 195.29158843848535 131.6827675540549 195.2818770349278 131.65534339641138 195.27240712200341 131.62784077228577 C 195.26293720907904 131.60033814816018 195.25370590216068 131.57274867998677 195.24471741852423 131.54508497187476 C 195.2357289348878 131.51742126376274 195.22698053655412 131.48967488907863 195.2184762201848 131.46185852361367 C 195.20997190381553 131.4340421581487 195.20170907891344 131.4061473287685 195.1936915203084 131.378186779085 C 195.18567396170337 131.35022622940147 195.1778992271694 131.32219144236038 195.17037086855467 131.2940952255126 C 195.16284250993994 131.26599900866483 195.1555582340335 131.23783280363057 195.14852136862 131.20960947799836 C 195.14148450320656 131.18138615236614 195.13469290478866 131.1530971090376 195.12814967607383 131.12475527171932 C 195.12160644735897 131.09641343440106 195.11530959521633 131.06801016989488 195.10926199633099 131.0395584540888 C 195.1032143974456 131.0111067382827 195.09741420966034 130.98259790450842 195.09186408276167 130.95404497688273 C 195.086313955863 130.92549204925703 195.08101219922852 130.89688633028157 195.07596123493897 130.86824088833464 C 195.0709102706494 130.83959544638773 195.0661085601321 130.81090155579022 195.0615582970243 130.78217232520115 C 195.0570080339165 130.75344309461212 195.05270783216397 130.72466977282954 195.04865965629216 130.69586550480034 C 195.04461148042031 130.66706123677108 195.04081409731563 130.6382172484361 195.03726924179338 130.60934671702574 C 195.03372438627113 130.5804761856154 195.03043097853399 130.55157031688617 195.02739052315863 130.52264231633825 C 195.02435006778327 130.49371431579036 195.02156163861756 130.46475537167456 195.01902650954128 130.43577871373827 C 195.01649138046497 130.40680205580202 195.01420877925324 130.37779885747455 195.01217974870087 130.34878236872063 C 195.0101507181485 130.31976587996672 195.00837464019318 130.29072726208273 195.00685232622712 130.26167978121472 C 195.00533001226108 130.23263230034672 195.0040609985727 130.20356710835057 195.00304586490452 130.1744974835125 C 195.00203073123635 130.14542785867445 195.0012691683688 130.1163449461052 195.00076152421803 130.0872620321864 C 195.00025388006728 130.05817911826767 195 130.02908734406213 195 130 C 195 129.97091265593787 195.00025388006728 129.94182088173233 195.00076152421803 129.9127379678136 C 195.0012691683688 129.8836550538948 195.00203073123635 129.85457214132555 195.00304586490452 129.8255025164875 C 195.0040609985727 129.79643289164943 195.00533001226108 129.76736769965328 195.00685232622712 129.73832021878528 C 195.00837464019318 129.70927273791727 195.0101507181485 129.6802341200333 195.01217974870087 129.6512176312794 C 195.01420877925324 129.62220114252545 195.01649138046497 129.59319794419798 195.01902650954128 129.56422128626173 C 195.02156163861756 129.53524462832544 195.02435006778327 129.50628568420964 195.02739052315863 129.47735768366175 C 195.03043097853399 129.44842968311383 195.03372438627113 129.4195238143846 195.03726924179338 129.39065328297426 C 195.04081409731563 129.3617827515639 195.04461148042031 129.33293876322892 195.04865965629216 129.30413449519966 C 195.05270783216397 129.27533022717046 195.0570080339165 129.24655690538788 195.0615582970243 129.21782767479885 C 195.0661085601321 129.18909844420978 195.0709102706494 129.16040455361227 195.07596123493897 129.13175911166536 C 195.08101219922852 129.10311366971843 195.086313955863 129.07450795074297 195.09186408276167 129.04595502311727 C 195.09741420966034 129.01740209549158 195.1032143974456 128.9888932617173 195.10926199633099 128.9604415459112 C 195.11530959521633 128.93198983010512 195.12160644735897 128.90358656559894 195.12814967607383 128.87524472828068 C 195.13469290478866 128.8469028909624 195.14148450320656 128.81861384763386 195.14852136862 128.79039052200164 C 195.1555582340335 128.76216719636943 195.16284250993994 128.73400099133517 195.17037086855467 128.7059047744874 C 195.17789922716938 128.67780855763962 195.18567396170337 128.64977377059853 195.1936915203084 128.621813220915 C 195.20170907891344 128.5938526712315 195.20997190381553 128.5659578418513 195.2184762201848 128.53814147638633 C 195.22698053655412 128.51032511092137 195.2357289348878 128.4825787362373 195.24471741852423 128.45491502812527 C 195.25370590216068 128.42725132001326 195.26293720907904 128.39966185183982 195.27240712200341 128.37215922771423 C 195.2818770349278 128.34465660358862 195.29158843848535 128.3172324459451 195.30153689607044 128.28989928337165 C 195.31148535365554 128.2625661207982 195.32167389566473 128.2353156273487 195.332097867514 128.2081602522735 C 195.34252183936326 128.1810048771983 195.35318441629542 128.15393634870708 195.36408072716605 128.12696703292045 C 195.3749770380367 128.0999977171338 195.38611040196764 128.07311939893688 195.3974757327378 128.04634435755364 C 195.40884106350796 128.0195693161704 195.42044182310718 127.99288939566385 195.432272711787 127.966316784621 C 195.44410360046683 127.93974417357815 195.45616822203056 127.91327077772422 195.46846106481675 127.8869086912965 C 195.48075390760295 127.86054660486877 195.4932787161306 127.83428779772032 195.50602976850416 127.80814426605461 C 195.51878082087774 127.7820007343889 195.53176200119128 127.75596451463295 195.54496737905816 127.73004750130227 C 195.55817275692502 127.70413048797158 195.57160635483123 127.67832478649288 195.58526203570537 127.65264218607055 C 195.5989177165795 127.62695958564822 195.6127996400743 127.6013922631134 195.62690146430302 127.57595189876831 C 195.64100328853175 127.55051153442322 195.65532930904675 127.52519037888644 195.66987298107782 127.5 C 195.68441665310888 127.47480962111356 195.69918240679942 127.44974234564407 195.71416349648945 127.42480962544973 C 195.72914458617944 127.39987690525538 195.74434557525396 127.37507114558811 195.75975951921788 127.35040367883397 C 195.77517346318177 127.32573621207983 195.7908050572717 127.30119952428949 195.8066471602729 127.27680482492487 C 195.82248926327404 127.25241012556025 195.83854670084443 127.22814998375961 195.8548121372248 127.20403548264626 C 195.87107757360516 127.17992098153292 195.88755596340496 127.1559447755962 195.90423977855505 127.13211781824477 C 195.9209235937051 127.10829086089333 195.9378179162572 127.08460589420513 195.95491502812527 127.06107373853763 C 195.97201213999335 127.03754158287013 195.98931724912336 127.01415507010074 196.00682244976355 126.99092488423976 C 196.02432765040373 126.96769469837878 196.0420382748078 126.94461376328654 196.0599462319664 126.92169262337171 C 196.077854189125 126.89877148345688 196.09596493397535 126.87600315671821 196.11427019271514 126.85339804475082 C 196.13257545145493 126.83079293278342 196.15108080004327 126.8083441498512 196.1697777844051 126.7860619515673 C 196.18847476876695 126.76377975328342 196.20736908418482 126.7416573522744 196.22645209888614 126.71970485504747 C 196.24553511358747 126.69775235782053 196.26481264044335 126.67596307743237 196.28427587261302 126.65434696820572 C 196.3037391047827 126.63273085897906 196.32339397095518 126.61128133643763 196.34323149190413 126.5900081996875 C 196.3630690128531 126.56873506293738 196.38309523127955 126.54763183197505 196.40330099830675 126.52670814770501 C 196.42350676533394 126.50578446343496 196.4438982358342 126.48503395230031 196.46446609406726 126.46446609406726 C 196.4850339523003 126.44389823583421 196.50578446343496 126.42350676533394 196.52670814770502 126.40330099830675 C 196.54763183197505 126.38309523127955 196.56873506293738 126.3630690128531 196.5900081996875 126.34323149190415 C 196.61128133643763 126.3233939709552 196.63273085897904 126.3037391047827 196.65434696820572 126.28427587261302 C 196.67596307743236 126.26481264044335 196.69775235782052 126.24553511358747 196.71970485504747 126.22645209888614 C 196.7416573522744 126.20736908418482 196.76377975328342 126.18847476876695 196.7860619515673 126.16977778440511 C 196.8083441498512 126.15108080004327 196.8307929327834 126.13257545145494 196.8533980447508 126.11427019271515 C 196.8760031567182 126.09596493397537 196.8987714834569 126.07785418912499 196.9216926233717 126.05994623196639 C 196.94461376328653 126.0420382748078 196.96769469837878 126.02432765040372 196.99092488423975 126.00682244976353 C 197.01415507010074 125.98931724912335 197.03754158287012 125.97201213999335 197.06107373853763 125.95491502812527 C 197.08460589420514 125.93781791625719 197.10829086089333 125.92092359370511 197.13211781824478 125.90423977855504 C 197.1559447755962 125.88755596340496 197.17992098153292 125.87107757360516 197.20403548264628 125.8548121372248 C 197.2281499837596 125.83854670084443 197.25241012556026 125.82248926327404 197.27680482492485 125.80664716027287 C 197.30119952428947 125.79080505727171 197.32573621207982 125.77517346318177 197.35040367883397 125.75975951921787 C 197.37507114558812 125.74434557525396 197.39987690525538 125.72914458617944 197.42480962544974 125.71416349648943 C 197.44974234564407 125.69918240679942 197.47480962111356 125.68441665310887 197.5 125.6698729810778 C 197.52519037888644 125.65532930904673 197.55051153442324 125.64100328853175 197.57595189876832 125.62690146430302 C 197.6013922631134 125.61279964007429 197.62695958564822 125.5989177165795 197.65264218607055 125.58526203570537 C 197.67832478649288 125.57160635483123 197.70413048797158 125.55817275692503 197.73004750130227 125.54496737905816 C 197.75596451463295 125.5317620011913 197.7820007343889 125.51878082087774 197.8081442660546 125.50602976850416 C 197.83428779772032 125.49327871613059 197.86054660486877 125.48075390760295 197.8869086912965 125.46846106481675 C 197.91327077772422 125.45616822203056 197.93974417357813 125.44410360046682 197.966316784621 125.432272711787 C 197.99288939566387 125.42044182310717 198.0195693161704 125.40884106350796 198.04634435755364 125.3974757327378 C 198.07311939893688 125.38611040196764 198.0999977171338 125.3749770380367 198.12696703292045 125.36408072716607 C 198.15393634870708 125.35318441629543 198.1810048771983 125.34252183936326 198.2081602522735 125.332097867514 C 198.2353156273487 125.32167389566473 198.2625661207982 125.31148535365556 198.28989928337165 125.30153689607046 C 198.3172324459451 125.29158843848536 198.34465660358862 125.28187703492779 198.3721592277142 125.27240712200341 C 198.39966185183982 125.26293720907904 198.42725132001326 125.25370590216066 198.45491502812527 125.24471741852423 C 198.4825787362373 125.2357289348878 198.51032511092134 125.22698053655412 198.5381414763863 125.21847622018483 C 198.56595784185126 125.20997190381553 198.5938526712315 125.20170907891344 198.62181322091502 125.1936915203084 C 198.64977377059853 125.18567396170337 198.67780855763962 125.17789922716939 198.7059047744874 125.17037086855466 C 198.73400099133517 125.16284250993992 198.76216719636946 125.15555823403349 198.79039052200167 125.14852136862002 C 198.81861384763388 125.14148450320656 198.8469028909624 125.13469290478866 198.87524472828068 125.12814967607382 C 198.90358656559894 125.12160644735897 198.9319898301051 125.11530959521633 198.9604415459112 125.10926199633097 C 198.9888932617173 125.10321439744561 199.01740209549158 125.09741420966034 199.04595502311727 125.09186408276167 C 199.07450795074297 125.086313955863 199.10311366971843 125.08101219922852 199.13175911166536 125.07596123493896 C 199.16040455361227 125.07091027064939 199.1890984442098 125.06610856013211 199.21782767479885 125.0615582970243 C 199.2465569053879 125.0570080339165 199.27533022717043 125.05270783216396 199.30413449519966 125.04865965629214 C 199.3329387632289 125.04461148042033 199.3617827515639 125.04081409731563 199.39065328297426 125.03726924179338 C 199.4195238143846 125.03372438627113 199.44842968311383 125.03043097853399 199.47735768366172 125.02739052315863 C 199.50628568420964 125.02435006778327 199.53524462832544 125.02156163861757 199.5642212862617 125.01902650954128 C 199.59319794419798 125.01649138046498 199.62220114252545 125.01420877925324 199.65121763127937 125.01217974870087 C 199.6802341200333 125.01015071814851 199.70927273791725 125.0083746401932 199.73832021878528 125.00685232622713 C 199.7673676996533 125.00533001226107 199.79643289164946 125.0040609985727 199.8255025164875 125.00304586490452 C 199.85457214132555 125.00203073123635 199.88365505389484 125.00126916836881 199.91273796781357 125.00076152421805 C 199.94182088173233 125.00025388006729 199.97091265593787 125 200 125 C 200.02908734406213 125 200.05817911826767 125.00025388006729 200.0872620321864 125.00076152421805 C 200.11634494610516 125.00126916836881 200.14542785867445 125.00203073123635 200.1744974835125 125.00304586490452 C 200.20356710835057 125.0040609985727 200.2326323003467 125.00533001226107 200.26167978121472 125.00685232622713 C 200.29072726208273 125.0083746401932 200.3197658799667 125.01015071814851 200.34878236872063 125.01217974870087 C 200.37779885747455 125.01420877925324 200.40680205580202 125.01649138046498 200.4357787137383 125.01902650954128 C 200.46475537167456 125.02156163861757 200.49371431579036 125.02435006778327 200.52264231633828 125.02739052315863 C 200.55157031688617 125.03043097853399 200.5804761856154 125.03372438627115 200.60934671702574 125.0372692417934 C 200.6382172484361 125.04081409731565 200.6670612367711 125.04461148042033 200.69586550480034 125.04865965629214 C 200.72466977282957 125.05270783216396 200.7534430946121 125.0570080339165 200.78217232520115 125.0615582970243 C 200.8109015557902 125.06610856013211 200.83959544638773 125.07091027064939 200.86824088833464 125.07596123493896 C 200.89688633028157 125.08101219922852 200.92549204925703 125.086313955863 200.95404497688273 125.09186408276167 C 200.98259790450842 125.09741420966034 201.0111067382827 125.10321439744561 201.0395584540888 125.10926199633097 C 201.0680101698949 125.11530959521633 201.09641343440106 125.12160644735897 201.12475527171932 125.12814967607382 C 201.1530971090376 125.13469290478866 201.18138615236612 125.14148450320654 201.20960947799833 125.14852136862001 C 201.23783280363054 125.15555823403348 201.26599900866483 125.16284250993992 201.2940952255126 125.17037086855466 C 201.32219144236038 125.17789922716939 201.35022622940147 125.18567396170337 201.37818677908498 125.1936915203084 C 201.4061473287685 125.20170907891344 201.4340421581487 125.20997190381553 201.46185852361367 125.21847622018483 C 201.48967488907863 125.22698053655412 201.5174212637627 125.2357289348878 201.54508497187473 125.24471741852423 C 201.57274867998674 125.25370590216066 201.60033814816018 125.26293720907904 201.6278407722858 125.27240712200341 C 201.65534339641138 125.28187703492779 201.6827675540549 125.29158843848536 201.71010071662835 125.30153689607046 C 201.7374338792018 125.31148535365556 201.7646843726513 125.32167389566473 201.7918397477265 125.332097867514 C 201.8189951228017 125.34252183936326 201.84606365129292 125.35318441629543 201.87303296707955 125.36408072716607 C 201.9000022828662 125.3749770380367 201.92688060106312 125.38611040196764 201.95365564244636 125.3974757327378 C 201.9804306838296 125.40884106350796 202.00711060433613 125.42044182310717 202.033683215379 125.432272711787 C 202.06025582642187 125.44410360046682 202.08672922227578 125.45616822203056 202.1130913087035 125.46846106481675 C 202.13945339513123 125.48075390760295 202.16571220227968 125.49327871613059 202.19185573394537 125.50602976850416 C 202.2179992656111 125.51878082087774 202.24403548536705 125.5317620011913 202.26995249869773 125.54496737905816 C 202.29586951202842 125.55817275692503 202.32167521350712 125.57160635483123 202.34735781392945 125.58526203570537 C 202.37304041435178 125.5989177165795 202.3986077368866 125.61279964007429 202.42404810123168 125.62690146430302 C 202.4494884655768 125.64100328853175 202.47480962111356 125.65532930904673 202.5 125.6698729810778 C 202.52519037888644 125.68441665310887 202.55025765435593 125.69918240679942 202.57519037455026 125.71416349648943 C 202.60012309474462 125.72914458617944 202.62492885441188 125.74434557525396 202.64959632116603 125.75975951921787 C 202.67426378792015 125.77517346318177 202.69880047571053 125.79080505727171 202.72319517507512 125.80664716027287 C 202.74758987443974 125.82248926327404 202.7718500162404 125.83854670084443 202.79596451735372 125.8548121372248 C 202.82007901846708 125.87107757360516 202.8440552244038 125.88755596340496 202.86788218175522 125.90423977855504 C 202.89170913910667 125.92092359370511 202.91539410579486 125.93781791625717 202.93892626146237 125.95491502812526 C 202.96245841712985 125.97201213999334 202.98584492989926 125.98931724912335 203.00907511576025 126.00682244976353 C 203.03230530162122 126.02432765040372 203.05538623671347 126.0420382748078 203.0783073766283 126.05994623196639 C 203.10122851654313 126.07785418912499 203.1239968432818 126.09596493397535 203.1466019552492 126.11427019271514 C 203.16920706721658 126.13257545145493 203.1916558501488 126.15108080004327 203.2139380484327 126.16977778440511 C 203.23622024671658 126.18847476876695 203.2583426477256 126.20736908418482 203.28029514495253 126.22645209888614 C 203.30224764217948 126.24553511358747 203.32403692256764 126.26481264044335 203.34565303179428 126.28427587261302 C 203.36726914102096 126.3037391047827 203.38871866356237 126.3233939709552 203.4099918003125 126.34323149190415 C 203.43126493706262 126.3630690128531 203.45236816802495 126.38309523127955 203.47329185229498 126.40330099830675 C 203.49421553656504 126.42350676533394 203.5149660476997 126.44389823583421 203.53553390593274 126.46446609406726 C 203.5561017641658 126.48503395230031 203.57649323466606 126.50578446343496 203.59669900169325 126.52670814770501 C 203.61690476872045 126.54763183197505 203.6369309871469 126.56873506293738 203.65676850809587 126.5900081996875 C 203.67660602904482 126.61128133643763 203.6962608952173 126.63273085897906 203.71572412738698 126.65434696820572 C 203.73518735955665 126.67596307743237 203.75446488641253 126.69775235782053 203.77354790111386 126.71970485504747 C 203.79263091581518 126.7416573522744 203.81152523123305 126.76377975328342 203.8302222155949 126.7860619515673 C 203.84891919995673 126.8083441498512 203.86742454854507 126.8307929327834 203.88572980728486 126.8533980447508 C 203.90403506602465 126.87600315671821 203.922145810875 126.89877148345688 203.9400537680336 126.92169262337171 C 203.9579617251922 126.94461376328654 203.97567234959627 126.96769469837878 203.99317755023645 126.99092488423976 C 204.01068275087664 127.01415507010074 204.02798786000665 127.03754158287013 204.04508497187473 127.06107373853763 C 204.0621820837428 127.08460589420513 204.0790764062949 127.10829086089333 204.09576022144495 127.13211781824477 C 204.11244403659504 127.1559447755962 204.12892242639484 127.17992098153292 204.1451878627752 127.20403548264626 C 204.16145329915557 127.22814998375961 204.17751073672596 127.25241012556025 204.1933528397271 127.27680482492487 C 204.2091949427283 127.30119952428949 204.22482653681823 127.32573621207983 204.24024048078212 127.35040367883397 C 204.25565442474604 127.37507114558811 204.27085541382056 127.39987690525538 204.28583650351055 127.42480962544973 C 204.30081759320058 127.44974234564407 204.31558334689112 127.47480962111356 204.33012701892218 127.5 C 204.34467069095325 127.52519037888644 204.35899671146825 127.55051153442322 204.37309853569698 127.57595189876831 C 204.3872003599257 127.6013922631134 204.4010822834205 127.62695958564822 204.41473796429463 127.65264218607055 C 204.42839364516877 127.67832478649288 204.44182724307498 127.70413048797158 204.45503262094184 127.73004750130227 C 204.46823799880872 127.75596451463295 204.48121917912226 127.7820007343889 204.49397023149584 127.80814426605461 C 204.5067212838694 127.83428779772032 204.51924609239705 127.86054660486877 204.53153893518325 127.8869086912965 C 204.54383177796944 127.91327077772422 204.55589639953317 127.93974417357815 204.567727288213 127.966316784621 C 204.57955817689282 127.99288939566385 204.59115893649204 128.0195693161704 204.6025242672622 128.04634435755364 C 204.61388959803236 128.07311939893688 204.6250229619633 128.0999977171338 204.63591927283395 128.12696703292045 C 204.64681558370458 128.15393634870708 204.65747816063674 128.1810048771983 204.667902132486 128.2081602522735 C 204.67832610433527 128.2353156273487 204.68851464634446 128.2625661207982 204.69846310392956 128.28989928337165 C 204.70841156151465 128.3172324459451 204.7181229650722 128.34465660358862 204.72759287799659 128.37215922771423 C 204.73706279092096 128.39966185183982 204.74629409783932 128.42725132001323 204.75528258147577 128.45491502812524 C 204.7642710651122 128.48257873623726 204.77301946344588 128.51032511092137 204.7815237798152 128.53814147638633 C 204.79002809618447 128.5659578418513 204.79829092108656 128.5938526712315 204.8063084796916 128.621813220915 C 204.81432603829663 128.64977377059853 204.82210077283062 128.67780855763962 204.82962913144533 128.7059047744874 C 204.83715749006006 128.73400099133517 204.8444417659665 128.76216719636943 204.85147863138 128.79039052200164 C 204.85851549679344 128.81861384763386 204.86530709521134 128.84690289096244 204.87185032392617 128.87524472828068 C 204.87839355264103 128.9035865655989 204.88469040478367 128.9319898301051 204.89073800366901 128.96044154591118 C 204.8967856025544 128.9888932617173 204.90258579033966 129.01740209549158 204.90813591723833 129.04595502311727 C 204.913686044137 129.07450795074297 204.91898780077148 129.10311366971843 204.92403876506103 129.13175911166536 C 204.9290897293506 129.16040455361227 204.9338914398679 129.18909844420978 204.9384417029757 129.21782767479885 C 204.9429919660835 129.24655690538788 204.94729216783603 129.27533022717046 204.95134034370784 129.30413449519966 C 204.95538851957969 129.33293876322892 204.95918590268437 129.3617827515639 204.96273075820662 129.39065328297426 C 204.96627561372887 129.4195238143846 204.96956902146601 129.44842968311383 204.97260947684137 129.47735768366175 C 204.97564993221673 129.50628568420964 204.97843836138244 129.53524462832544 204.98097349045872 129.56422128626173 C 204.98350861953503 129.59319794419798 204.98579122074676 129.62220114252545 204.98782025129913 129.65121763127937 C 204.9898492818515 129.68023412003328 204.99162535980682 129.70927273791727 204.99314767377288 129.73832021878528 C 204.99466998773892 129.76736769965328 204.9959390014273 129.79643289164943 204.99695413509548 129.8255025164875 C 204.99796926876365 129.85457214132555 204.9987308316312 129.8836550538948 204.99923847578197 129.9127379678136 C 204.99974611993272 129.94182088173233 204.999873079297 129.98545632796893 205 130 C 205.000126920703 130.01454367203107 205 130 205 130 L 205 130 Z" stroke-opacity="1" stroke-linecap="round" stroke-miterlimit="10" stroke-dasharray=""/></g></svg>