<svg version="1.1" xmlns="http://www.w3.org/2000/svg" xmlns:xlink="http://www.w3.org/1999/xlink" width="400" height="400" viewBox="0 0 400 400"><defs/><g><path fill="#FFFFFF" stroke="#000000" paint-order="fill stroke markers" d=" M 198 198 L 202 202" stroke-linecap="round" stroke-miterlimit="10" stroke-dasharray=""/><path fill="#FFFFFF" stroke="#000000" paint-order="fill stroke markers" d=" M 202 198 L 198 202" stroke-linecap="round" stroke-miterlimit="10" stroke-dasharray=""/><path fill="none" stroke="#000000" paint-order="fill stroke markers" d=" M 321.43599984836203 228.78086066865654 C 323.0108240477358 239.01348197722706 325.48209186706185 251.92265302782482 322.2489451962428 261.3957278514232 C 319.0157985254238 270.86880267502164 309.8716135970632 279.0073438709616 302.0371198234479 285.619309610247 C 294.2026260498326 292.2312753495324 284.64343768384055 297.70765797007545 275.24198255455104 301.0675222871355 C 265.84052742526154 304.4273866041956 254.90413373333107 304.10869680383394 245.62838904771087 305.77849551260755 C 236.35264436209064 307.44829422138116 228.33188459542689 309.1492238897615 219.58751444082975 311.08631453977705 C 210.84314428623262 313.0234051897927 202.44962174719922 315.7976454107054 193.16216812012803 317.40103941270115 C 183.87471449305684 319.0044334146969 173.2231540317573 322.08698497439525 163.86279267840263 320.7066785517516 C 154.50243132504795 319.326372129108 147.03518643919548 312.2164374226552 137.00000000000003 309.1192008768393 C 126.96481356080454 306.02196433102336 111.19821076974924 308.4403988299998 103.6516740432298 302.123259276856 C 96.10513731671037 295.8061197237122 92.57719248890137 282.0805441909237 91.72077964088339 271.2163635579764 C 90.86436679286541 260.3521829250291 95.96117860937677 246.99651994514807 98.5131969551219 236.93817547917223 C 101.06521530086702 226.87983101319642 106.20888393662727 218.90336455081228 107.03288971535414 210.86629676212152 C 107.85689549408102 202.82922897343076 102.43397960681183 195.79392841459648 103.45723162748315 188.7157687470276 C 104.48048364815448 181.6376090794587 108.94586736602628 174.31966103648492 113.17240183938206 168.39733875670822 C 117.39893631273785 162.4750164769315 123.6780583825296 157.8070063865455 128.81643846761781 153.18183506836732 C 133.95481855270603 148.55666375018916 139.03875542784766 144.79443393125902 144.00268234991137 140.6463108476392 C 148.96660927197507 136.4981877640194 153.1102770433138 131.2378745062826 158.59999999999997 128.2930965666485 C 164.08972295668613 125.3483186270144 170.78527390008244 123.80483706348167 176.9410200900284 122.97764320983468 C 183.0967662799743 122.15044935618769 189.57280605381035 122.50752856648796 195.5344771396755 123.32993344476658 C 201.49614822554065 124.1523383230452 207.4514834623188 125.60139167206927 212.71104660521928 127.91207247950638 C 217.97060974811976 130.2227532869435 222.99991441090592 133.5214449072928 227.09185599707837 137.19401828938928 C 231.1837975832508 140.86659167148576 234.1175610239105 145.90772525051557 237.26269612225389 149.9475127720853 C 240.40783122059727 153.987300293655 241.62825078503138 158.38649254052063 245.96266658713867 161.43274341880763 C 250.29708238924596 164.47899429709463 259.64231486736145 164.4722860455542 263.2691909348976 168.22501804180732 C 266.8960670024338 171.9777500380604 259.46878814817205 178.65330506996077 267.72392299235577 183.9491353963262 C 275.9790578365395 189.24496572269166 303.84798719066566 192.52804578794493 312.8 200 C 321.75201280933436 207.47195421205507 319.86117564898825 218.548239360086 321.43599984836203 228.78086066865654" stroke-linecap="round" stroke-miterlimit="10" stroke-dasharray=""/></g></svg>