<svg version="1.1" xmlns="http://www.w3.org/2000/svg" xmlns:xlink="http://www.w3.org/1999/xlink" width="400" height="400" viewBox="0 0 400 400"><defs/><g><path fill="#FFFFFF" stroke="#000000" paint-order="fill stroke markers" d=" M 198 198 L 202 202" stroke-linecap="round" stroke-miterlimit="10" stroke-dasharray=""/><path fill="#FFFFFF" stroke="#000000" paint-order="fill stroke markers" d=" M 202 198 L 198 202" stroke-linecap="round" stroke-miterlimit="10" stroke-dasharray=""/><path fill="none" stroke="#000000" paint-order="fill stroke markers" d=" M 225.82382246044833 218.76210525317575 C 227.26517152218958 226.35787662998638 220.348132758022 244.8974197378791 214.8080943704475 245.57462826086376 C 209.26805598287297 246.25183678384843 197.70518360495902 228.49319214037502 192.58359213500125 222.8253563910837 C 187.46200066504352 217.15752064179236 187.7758109065346 215.3718398302965 184.07854555070105 211.56761376511588 C 180.3812801948675 207.76338769993527 184.76814182009906 214.29493733575293 170.4 200 C 156.03185817990092 185.70506266424707 102.56945106808834 155.4455915519058 97.86969463010664 125.7979897505982 C 93.16993819212493 96.15038794929062 122.78177193411133 17.127586050371264 142.2014613721098 22.114389192154505 C 161.6211508101083 27.101192333937746 185.0470875038088 140.38965554583473 214.38783125809755 155.71880860129764 C 243.7285750123863 171.04796165676058 319.61722910752525 106.7091089584817 318.2459238978423 114.0893075249321 C 316.8746186881594 121.46950609138248 221.56368357289898 182.55453371195938 206.16 200 C 190.756316427101 217.44546628804062 224.38247339870708 211.16633387636512 225.82382246044833 218.76210525317575" stroke-linecap="round" stroke-miterlimit="10" stroke-dasharray=""/></g></svg>