<svg version="1.1" xmlns="http://www.w3.org/2000/svg" xmlns:xlink="http://www.w3.org/1999/xlink" width="400" height="400" viewBox="0 0 400 400"><defs/><g><path fill="#FFFFFF" stroke="#000000" paint-order="fill stroke markers" d=" M 198 198 L 202 202" stroke-linecap="round" stroke-miterlimit="10" stroke-dasharray=""/><path fill="#FFFFFF" stroke="#000000" paint-order="fill stroke markers" d=" M 202 198 L 198 202" stroke-linecap="round" stroke-miterlimit="10" stroke-dasharray=""/><path fill="none" stroke="#000000" paint-order="fill stroke markers" d=" M 300.58135488645036 244.7817044026456 C 287.96609643611026 255.26004644187685 269.0148688250144 256.9237727560668 256.6084492979594 262.87005223538756 C 244.20202977090443 268.81633171470827 237.03052491320085 277.1138689721822 226.14283772412057 280.45938127857 C 215.25515053504026 283.8048935849577 202.53946578416446 284.4018723812504 191.2823261634777 282.943126073714 C 180.02518654279095 281.48437976617754 168.19013633379765 277.50748908517824 158.60000000000002 271.7069034333515 C 149.00986366620236 265.90631778152476 139.70414911034138 257.35672400072525 133.7415081606918 248.13961216275356 C 127.77886721104228 238.92250032478182 122.44288117688319 226.69373852922706 122.82415430210274 216.4042324055212 C 123.20542742732229 206.11472628181536 131.37802845526528 195.10263446554066 136.02914691200914 186.40257542051853 C 140.68026536875294 177.7025163754964 145.04405619456722 170.55459347312998 150.7308650425657 164.20387813538838 C 156.41767389056417 157.8531627976468 162.96285644711725 152.0785776579095 170.14999999999998 148.29828339406902 C 177.33714355288268 144.51798913022856 185.9121632138625 142.03530234112384 193.85372635986198 141.52211255234553 C 201.7952895058615 141.00892276356723 210.58554182715451 142.346919722456 217.79937887599695 145.21914466139916 C 225.0132159248394 148.09136960034232 231.79004813436842 153.3266230815609 237.1367486529166 158.7554621860046 C 242.48344917146477 164.18430129044827 234.01904009610544 170.91808965239542 249.879581987286 177.7921792880613 C 265.7401238784666 184.66626892372722 323.8497045168059 188.83507914756927 332.29999999999995 200 C 340.750295483194 211.16492085243073 313.19661333679045 234.30336236341435 300.58135488645036 244.7817044026456" stroke-linecap="round" stroke-miterlimit="10" stroke-dasharray=""/></g></svg>