<svg version="1.1" xmlns="http://www.w3.org/2000/svg" xmlns:xlink="http://www.w3.org/1999/xlink" width="400" height="400" viewBox="0 0 400 400"><defs/><g><path fill="#FFFFFF" stroke="#000000" paint-order="fill stroke markers" d=" M 198 198 L 202 202" stroke-linecap="round" stroke-miterlimit="10" stroke-dasharray=""/><path fill="#FFFFFF" stroke="#000000" paint-order="fill stroke markers" d=" M 202 198 L 198 202" stroke-linecap="round" stroke-miterlimit="10" stroke-dasharray=""/><path fill="none" stroke="#000000" paint-order="fill stroke markers" d=" M 259.2370081161997 231.0899802097281 C 254.83266661292203 240.30739950773707 246.6485601754052 248.97075621680432 238.17395098033367 255.30451578805372 C 229.69934178526213 261.6382753593031 219.0423972423741 266.99626039874 208.38935294577047 269.09253763722455 C 197.73630864916686 271.1888148757091 184.98534468554004 271.1306730190966 174.25568520071192 267.88217921896114 C 163.52602571588378 264.6336854188256 152.2781910756306 257.82012211478593 144.01139603680167 249.6015748364115 C 135.74460099797273 241.38302755803707 128.01045405490572 229.9648827014738 124.65491496773836 218.57089554871447 C 121.299375880571 207.17690839595514 121.1635636802039 193.052864133841 123.87816151379752 181.23765191985547 C 126.59275934739115 169.42243970586992 133.00723437463637 157.08178190342838 140.94250196930014 147.67962226480125 C 148.8777695639639 138.2774626261741 160.0035340025159 129.638562115763 171.48976708178012 124.82469408809266 C 182.9760001610443 120.01082606042232 197.23103047051 117.67923938718666 209.85990044488537 118.79641409877918 C 222.48877041926073 119.9135888103717 236.45088890799127 124.53091732752668 247.2629869280322 131.5277423576478 C 258.07508494807314 138.52456738776894 271.84298638646965 149.3653213391139 274.73248856513095 160.77736427950595 C 277.62199074379225 172.189407219898 267.1825800748219 188.2812306782963 264.6 200 C 262.01741992517816 211.7187693217037 263.64134961947747 221.87256091171918 259.2370081161997 231.0899802097281" stroke-linecap="round" stroke-miterlimit="10" stroke-dasharray=""/></g></svg>