<svg version="1.1" xmlns="http://www.w3.org/2000/svg" xmlns:xlink="http://www.w3.org/1999/xlink" width="400" height="400" viewBox="0 0 400 400"><defs/><g><path fill="#FFFFFF" stroke="#000000" paint-order="fill stroke markers" d=" M 198 198 L 202 202" stroke-linecap="round" stroke-miterlimit="10" stroke-dasharray=""/><path fill="#FFFFFF" stroke="#000000" paint-order="fill stroke markers" d=" M 202 198 L 198 202" stroke-linecap="round" stroke-miterlimit="10" stroke-dasharray=""/><path fill="none" stroke="#000000" paint-order="fill stroke markers" d=" M 264.1070162572924 233.64595765596886 C 259.6396749923035 243.71379361540124 250.84763033570204 253.3907275169756 241.69595241006684 260.4070157565944 C 232.54427448443164 267.4233039962132 220.815238451219 273.50047585775593 209.19694870348116 275.7436870936815 C 197.5786589557433 277.9868983296071 183.5989834495907 277.560179223452 171.9862139236397 273.86628317214775 C 160.37344439768867 270.17238712084355 148.2503642821945 262.58880181404595 139.52033154777504 253.58031078585628 C 130.7902988133556 244.57181975766662 123.02216403730752 232.07187653424955 119.6060175171229 219.81533700300977 C 116.18987099693827 207.55879747177002 116.05370510403841 192.58313880374104 119.02345242666726 180.04107359841768 C 121.99319974929611 167.4990083930943 128.94015926087502 154.45135426742632 137.42450145289595 144.5629457710695 C 145.9088436449169 134.6745372747127 157.77457234862027 125.68339562962556 169.92950557879294 120.71062262027684 C 182.08443880896567 115.73784961092811 197.10541293612926 113.44467754048131 210.3541008339322 114.72630771497715 C 223.60278873173513 116.007937889473 238.145870461258 121.01180686259077 249.4216329656106 128.4004036672519 C 260.6973954699632 135.78900047191308 274.8289480209829 147.124622487486 278.0086758600478 159.057888542944 C 281.1884036991127 170.99115459840203 270.8169432671259 187.5686551478292 268.5 200 C 266.1830567328741 212.4313448521708 268.5743575222813 223.57812169653644 264.1070162572924 233.64595765596886" stroke-linecap="round" stroke-miterlimit="10" stroke-dasharray=""/></g></svg>