<svg version="1.1" xmlns="http://www.w3.org/2000/svg" xmlns:xlink="http://www.w3.org/1999/xlink" width="400" height="400" viewBox="0 0 400 400"><defs/><g><path fill="#FFFFFF" stroke="#000000" paint-order="fill stroke markers" d=" M 198 198 L 202 202" stroke-linecap="round" stroke-miterlimit="10" stroke-dasharray=""/><path fill="#FFFFFF" stroke="#000000" paint-order="fill stroke markers" d=" M 202 198 L 198 202" stroke-linecap="round" stroke-miterlimit="10" stroke-dasharray=""/><path fill="none" stroke="#000000" paint-order="fill stroke markers" d=" M 302.59041651220366 204.74304120291745 C 276.34047642063825 205.46273440673122 243.52740309381653 202.29488166084877 246.6003594506076 204.31815922288254 C 249.6733158073987 206.34143678491628 310.90477081380436 214.25815855467218 321.0281546529501 216.88270657512 C 331.1515384920958 219.50725459556782 314.22459215228366 219.75405676793682 307.3406624854821 220.06544734556948 C 300.4567328186805 220.37683792320215 290.7376337177021 220.13860088616218 279.72457665214074 218.75105004091597 C 268.7115195865794 217.3634991956698 250.03018378062046 213.35051151423795 241.26232009211395 211.74014227409236 C 232.49445640360742 210.12977303394675 229.5496635762932 209.32360637023234 227.11739452110163 209.0888346000424 C 224.68512546591006 208.8540628298524 223.0618526494129 208.2581524930143 226.66870576096457 210.33151165295257 C 230.27555887251623 212.40487081289083 236.71737353478323 215.04189344961284 248.75851319041152 221.528989559672 C 260.7996528460398 228.01608566973115 285.46348951083763 240.82312261931813 298.91554369473437 249.25408831330748 C 312.36759787863116 257.6850540072968 328.2722458197384 269.37400945464367 329.470838293792 272.1147837236081 C 330.6694307678456 274.8555579925725 317.49685277673217 270.7384298295763 306.10709853905587 265.698733927094 C 294.71734430137957 260.6590380246117 269.82583519688615 246.0367137266901 261.1323128677342 241.87660830871405 C 252.43879053858225 237.716502890738 263.63461629429435 247.30228571368298 253.9459645641442 240.73810141923772 C 244.25731283399404 234.1739171247925 192.29680893692668 191.32719720873484 203.00040248683322 202.49150254204264 C 213.70399603673977 213.65580787535043 303.0405330804996 292.51212397853556 318.16752586358336 307.7239334190845 C 333.29451864666726 322.9357428596334 309.95372948230465 307.8735017189695 293.7623591853362 293.7623591853362 C 277.57098888836776 279.65121665170284 234.43169501973514 236.0171136487666 221.0193040817726 223.05707821728458 C 207.60691314381 210.09704278580253 210.52383068617863 211.54561380227682 213.2880135575608 216.00214659644388 C 216.05219642894298 220.45867939061094 233.9416515263308 243.88332567920526 237.6044013100656 249.79627498228695 C 241.26715109380044 255.70922428536863 230.46806318850824 241.91049144273117 235.26451225996973 251.47984241493407 C 240.06096133143123 261.04919338713694 261.82284838357043 297.05315427196206 266.3830957388346 307.21238081550433 C 270.9433430940987 317.3716073590466 267.2192105500041 317.3091446992675 262.6259963915544 312.4352016761878 C 258.03278223310474 307.56125865310804 244.9731821850056 286.99586138594276 238.82381078813648 277.96872267702594 C 232.67443939126738 268.9415839681091 227.5042614812628 259.14501755326796 225.7297680103397 258.27236942268695 C 223.95527453941662 257.3997212921059 228.196146561271 269.7079374313489 228.1768499625979 272.73283389353975 C 228.15755336392485 275.7577303557306 224.3214716459902 267.4959360199899 225.6139884183013 276.42174819583187 C 226.90650519061236 285.34756037167375 237.27419746931884 326.5808818529856 235.9319505964645 326.28770694859116 C 234.58970372361017 325.9945320441967 221.5983582331001 285.27475218591957 217.5605071811753 274.6626987694651 C 213.52265612925046 264.05064535301074 213.5539759131534 267.3339682172821 211.70484428491554 262.61538644986456 C 209.85571265667767 257.89680468244694 207.55689124356758 247.51018249745496 206.46571741174807 246.35120816495962 C 205.3745435799286 245.19223383246424 204.96460602555464 235.8994361257404 205.15780129399857 255.66154045489242 C 205.3509965624425 275.4236447840444 208.4845225714114 352.96742421568706 207.62488902241162 364.9238341398717 C 206.76525547341186 376.8802440640563 201.67107147866503 346.2298865750247 200 327.4 C 198.328928521335 308.57011342497526 198.6979914340259 261.31201575554087 197.59846015042154 251.94451468972335 C 196.4989288668172 242.57701362390586 195.45713356308926 262.2561207314994 193.4028122983739 271.19499360509496 C 191.34849103365855 280.13386647869055 187.3579929206789 300.4053838042918 185.27253256212936 305.5777519312969 C 183.18707220357982 310.75012005830206 182.255130582433 303.58530281542437 180.8900501470767 302.22920236712577 C 179.52496971172042 300.87310191882716 176.38739151749365 305.7267362831537 177.08204994999159 297.44114924150534 C 177.77670838248952 289.15556219985706 184.33680874131974 259.5113053434749 185.05800074206428 252.51568011723592 C 185.77919274280882 245.52005489099696 181.58001568571484 257.3507991469987 181.40920195445875 255.4673978840715 C 181.2383882232027 253.58399662114428 182.5099439326047 246.89214276658117 184.03311835452783 241.21527253967253 C 185.556292776451 235.5384023127639 191.84674393890054 220.3233547076943 190.54824848599765 221.4061765226197 C 189.24975303309478 222.48899833754507 183.83934813909536 234.81211745264403 176.24214563711053 247.71220342922481 C 168.64494313512566 260.6122894058056 147.16464738593874 296.8111857989387 144.96503347408856 298.8066923821044 C 142.76541956223843 300.8021989652701 169.54508430501093 253.27309502971008 163.04446216600962 259.68524292821894 C 156.5438400270083 266.09739082672775 112.20627393322201 330.8012656663424 105.96130064008071 337.2795797731575 C 99.71632734693941 343.7578938799726 117.237596665412 312.6005390978491 125.57462240716185 298.5551275691096 C 133.9116481489117 284.50971604037005 152.92113841700578 259.18537487677884 155.98345509057987 253.00711060072035 C 159.04577176415398 246.82884632466192 141.5150386465965 265.4174533299855 143.94852244860647 261.4855419127589 C 146.38200625061643 257.5536304955322 173.57157707970538 228.42374342798345 170.58435790263962 229.41564209736038 C 167.59713872557387 230.4075407667373 135.62454572301255 260.2972786587076 126.025207386212 267.43693392902037 C 116.42586904941146 274.5765891993331 104.63598162881827 280.489933436117 112.98832788183641 272.2535737192369 C 121.34067413485455 264.01721400235675 172.3623067210715 222.71426452678554 176.13928490432085 218.01877562773976 C 179.91626308757017 213.32328672869397 139.41038706719206 242.2932369140682 135.65019698133244 244.0806403249622 C 131.8900068954728 245.86804373585616 152.3174197847208 230.81842096278973 153.57814438916307 228.74319609310365 C 154.83886899360533 226.66797122341757 146.72678736754176 230.81837845143775 143.21454460798597 231.62929110684567 C 139.70230184843018 232.44020376225356 136.51840826221616 232.92911773824602 132.5046878318283 233.608672025551 C 128.49096740144046 234.28822631285598 124.04585530730583 235.04653995435672 119.13222202565895 235.70661683067553 C 114.21858874401207 236.36669370699437 101.04927433699389 239.66436686431612 103.022888141947 237.56913328346394 C 104.99650194690012 235.47389970261176 123.98045734394972 226.78781705411924 130.97390485537767 223.13521534556244 C 137.96735236680564 219.48261363700564 154.57038186422602 214.54879700746395 144.98357321051475 215.65352303212313 C 135.39676455680345 216.7582490567823 72.16381615066169 230.89943336437517 73.45305293310994 229.76357149351747 C 74.7422897155582 228.62770962265978 149.2241280492721 211.34436914958485 152.71899390520431 208.83835180697704 C 156.21385976113652 206.33233446436924 103.80147277535112 214.6012078416696 94.42224806870313 214.72746743787067 C 85.04302336205514 214.85372703407174 88.58695018109006 211.60019856869926 96.44364566531641 209.59590938418344 C 104.30034114954276 207.59162019966763 136.86969525161396 204.301050561473 141.5624209740612 202.70173233077577 C 146.25514669650846 201.10241410007853 129.57801599109848 201.13072501250986 124.6 200 C 119.6219840089015 198.86927498749014 123.93803492015488 198.21640221234387 111.69432502747027 195.9173822557166 C 99.45061513478566 193.61836229908934 51.012175163365384 187.5609475991469 51.13774064389233 186.2058802602364 C 51.26330612441927 184.8508129213259 97.22132907319862 187.2795160643379 112.44771791063185 187.78697822225362 C 127.67410674806509 188.29444038016933 136.34048979138973 189.19938767767405 142.49607366849176 189.25065320773064 C 148.65165754559376 189.3019187377872 151.46738458848947 189.62345788342276 149.38122117324397 188.09457140259303 C 147.29505775799848 186.56568492176334 133.86871845790867 182.22438467774927 129.9790931770188 180.07733432275236 C 126.0894678961289 177.93028396775549 119.42420959334805 173.84855068491748 126.04346948790466 175.21226927261168 C 132.66272938246127 176.57598786030587 166.08959900526168 187.97907097413156 169.69465254435843 188.25964584891753 C 173.2997060834552 188.54022072370353 151.9325977099709 179.57467172955654 147.6737907224852 176.89571852132764 C 143.41498373499945 174.2167653130987 146.21001226434097 174.34477833006596 144.1418106194441 172.18592659954402 C 142.07360897454726 170.02707486902207 133.32343113266802 163.86934131639035 135.264580853104 163.94260813819594 C 137.20573057354 164.0158749600015 154.83069232320716 173.35050449194605 155.78870894206005 172.62552753037752 C 156.74672556091295 171.90055056880897 147.9951418604877 165.86771383473456 141.01268056622138 159.59274636878467 C 134.03021927195505 153.3177789028348 125.73229478685013 146.2353654886726 113.89394117646214 134.97572273467824 C 102.05558756607414 123.7160799806839 70.0422229857733 94.33457535170615 69.98255890389342 92.03488984481858 C 69.92289482201355 89.73520433793101 102.5908360171611 113.90787751548521 113.53595668518288 121.1776096933528 C 124.48107735320467 128.4473418712204 132.19016323547788 134.52511276575203 135.65328291202417 135.65328291202417 C 139.11640258857045 136.78145305829634 135.35565056722163 131.39074502192446 134.31467474446066 127.94663057098575 C 133.27369892169966 124.50251612004703 129.42782414830415 117.50361483805656 129.40742797545823 114.98859620639192 C 129.38703180261234 112.47357757472727 134.6714913491177 116.5628967650264 134.1922977073852 112.85651878099786 C 133.71310406565266 109.15014079696932 117.84552178209583 81.91068902054865 126.53226612506309 92.75032830222068 C 135.21901046803035 103.58996758389272 179.33968997050687 169.48365175340248 186.31276376518875 177.89435447103003 C 193.28583755987063 186.3050571886576 169.46968538532454 146.3185919792669 168.37070889315433 143.214544607986 C 167.27173240098415 140.1104972367051 178.8231671804721 159.7160945866292 179.71890481216752 159.27007024334466 C 180.61464244386292 158.8240459000601 174.27840353571554 143.85185940738327 173.7451346833268 140.53839854827865 C 173.21186583093805 137.22493768917403 174.897673114766 137.69643045921836 176.51929169783506 139.38930508871687 C 178.1409102809041 141.0821797182154 181.933140712005 148.92968608088702 183.47484618174113 150.69564632526976 C 185.01655165147724 152.46160656965253 185.24760007522235 151.25869530590847 185.7695245162517 149.98506655501342 C 186.291448957281 148.71143780411836 185.34939398871296 140.6814217171507 186.60639282791715 143.05387381989948 C 187.86339166712133 145.42632592264823 191.67792722758784 159.0205366752818 193.3115175514768 164.219779171506 C 194.9451078753658 169.4190216677302 197.39229287428734 190.93891116987436 196.40793477125106 174.24932879724466 C 195.4235766682148 157.55974642461496 187.60720467832715 77.10534463184302 187.40536893325918 64.08228493572778 C 187.2035331881912 51.059225239612545 193.09781512305298 79.95801810984123 195.19692030084312 96.11097062055327 C 197.29602547863325 112.26392313126532 198.44900551381392 159.91782261063076 200 161 C 201.55099448618606 162.08217738936924 203.90314288144808 102.5763071026864 204.50288721795954 102.60403495676867 C 205.102631554471 102.63176281085094 201.95423706956277 162.1008204191253 203.59846601906878 161.16636712449366 C 205.24269496857482 160.23191382986198 212.7783234975264 102.2388058142941 214.36826091499574 96.99731518897866 C 215.95819833246506 91.75582456366323 212.80447328947824 124.15044605189571 213.13809052388473 129.71742337260102 C 213.47170775829122 135.28440069330634 214.7055589652336 132.23112748332784 216.36996432143462 130.39917911321047 C 218.03436967763565 128.5672307430931 221.37728755555167 120.47885879100464 223.124522661091 118.72573315189679 C 224.87175776663034 116.97260751278894 224.4459398509418 122.497566113555 226.85337495467064 119.88042527856337 C 229.26081005839944 117.26328444357173 236.79372271257435 101.56194597871848 237.56913328346388 103.02288814194698 C 238.3445438543534 104.48383030517547 231.97276196882345 124.120349069208 231.5058383800078 128.64607825793436 C 231.03891479119216 133.17180744666072 235.27417114787772 126.80276129276295 234.76759175056995 130.17726327430512 C 234.26101235326215 133.55176525584727 220.003422876661 160.2826814522486 228.46636199616108 148.89309014718737 C 236.92930111566113 137.50349884212613 284.16730897735243 62.259369776617206 285.54522646757033 61.839715443937706 C 286.9231439577882 61.42006111125821 248.77170043806657 126.28781351224883 236.73386693746843 146.3751641511103 C 224.69603343687032 166.4625147899718 213.90386430457596 180.0939077174767 213.31822546398155 182.3638192771067 C 212.73258662338716 184.6337308367367 222.30267308679106 171.4659439408776 233.22003389390198 159.9946335088903 C 244.1373947010129 148.52332307690298 276.6987391594432 114.52871906618549 278.82239030664715 113.53595668518284 C 280.9460414538511 112.54319430418019 244.68833194243058 152.76445038817943 245.96194077712556 154.0380592228744 C 247.23554961182055 155.3116680575694 285.78991542535675 120.43812662506139 286.46404331481705 121.17760969335274 C 287.13817120427734 121.91709276164408 251.44960205638608 155.13070542267758 250.00670811388716 158.47495763262253 C 248.5638141713882 161.8192098425675 282.5661419555452 136.7712070209575 277.8066796598233 141.2431229530225 C 273.04721736410147 145.7150388850875 224.28596008208183 181.7869569914715 221.44993433955585 185.3064532250126 C 218.61390859702988 188.82594945855368 250.16915041325657 167.81849866848262 260.79052520466746 162.3601003542691 C 271.4118999960783 156.90170204005557 286.5820951980871 150.62869570093093 285.178183088021 152.5560633397315 C 283.774270977955 154.48343097853206 257.6441761745164 169.95521320786202 252.36705254427113 173.9243061870725 C 247.08992891402582 177.8933991662829 255.1720356576114 174.76408821475883 253.51544130654923 176.37062121499417 C 251.85884695548708 177.97715421522952 231.83041999274235 186.16648111071106 242.42748643789818 183.56350418848453 C 253.024552883054 180.96052726625803 304.3715098951601 163.64624025869955 317.0978399774842 160.75275968163507 C 329.8241700598084 157.8592791045706 315.1014999658273 165.11806878018177 318.78546693184313 166.20262072609773 C 322.46943389785895 167.2871726720137 337.7014691024017 165.6084143641728 339.20164177357907 167.2600713571308 C 340.70181444475645 168.91172835008882 343.4761641537001 171.7035936017527 327.78650295890725 176.1125626838458 C 312.09684176411434 180.52153176593887 256.65301687909647 190.63226280176417 245.06367460482184 193.71388584968935 C 233.4743323305472 196.79550889761452 254.93928785370412 194.0549360816739 258.25044931325954 194.60230097139683 C 261.5616107728149 195.14966586111976 240.62238491436415 196.0984586832597 264.9306433621542 196.9980751880269 C 289.2389018099443 197.8976916927941 397.8233711416584 198.70917233085157 404.1 200 C 410.3766288583416 201.29082766914843 328.840356603769 204.0233479991037 302.59041651220366 204.74304120291745" stroke-linecap="round" stroke-miterlimit="10" stroke-dasharray=""/></g></svg>